<svg width="24" height="22" viewBox="0 0 24 22" fill="none" xmlns="http://www.w3.org/2000/svg">
<g clip-path="url(#clip0)">
<path d="M11.6821 6.17753L4 12.5046V19.3334C4 19.5102 4.07024 19.6797 4.19527 19.8048C4.32029 19.9298 4.48986 20 4.66667 20L9.33582 19.9879C9.51206 19.9871 9.68077 19.9164 9.80507 19.7915C9.92938 19.6666 9.99916 19.4975 9.99916 19.3213V15.3334C9.99916 15.1566 10.0694 14.987 10.1944 14.862C10.3194 14.7369 10.489 14.6667 10.6658 14.6667H13.3325C13.5093 14.6667 13.6789 14.7369 13.8039 14.862C13.9289 14.987 13.9991 15.1566 13.9991 15.3334V19.3184C13.9989 19.4061 14.0159 19.493 14.0493 19.5741C14.0827 19.6553 14.1317 19.729 14.1937 19.7911C14.2556 19.8532 14.3292 19.9025 14.4102 19.9362C14.4912 19.9698 14.5781 19.9871 14.6658 19.9871L19.3333 20C19.5101 20 19.6797 19.9298 19.8047 19.8048C19.9297 19.6797 20 19.5102 20 19.3334V12.5L12.3196 6.17753C12.2293 6.10475 12.1168 6.06506 12.0008 6.06506C11.8848 6.06506 11.7724 6.10475 11.6821 6.17753ZM23.8166 10.4779L20.3333 7.6067V1.83545C20.3333 1.70284 20.2806 1.57566 20.1869 1.4819C20.0931 1.38813 19.9659 1.33545 19.8333 1.33545H17.5C17.3674 1.33545 17.2402 1.38813 17.1464 1.4819C17.0527 1.57566 17 1.70284 17 1.83545V4.86087L13.2696 1.7917C12.9116 1.49711 12.4624 1.33604 11.9987 1.33604C11.5351 1.33604 11.0859 1.49711 10.7279 1.7917L0.180847 10.4779C0.130217 10.5198 0.0883285 10.5712 0.0575753 10.6293C0.026822 10.6873 0.00780661 10.7508 0.00161554 10.8162C-0.00457553 10.8816 0.00217908 10.9476 0.0214934 11.0104C0.0408078 11.0731 0.0723033 11.1315 0.11418 11.1821L1.17668 12.4738C1.21844 12.5246 1.26981 12.5666 1.32784 12.5975C1.38588 12.6284 1.44944 12.6476 1.51488 12.6539C1.58033 12.6602 1.64638 12.6535 1.70924 12.6343C1.77211 12.615 1.83057 12.5836 1.88126 12.5417L11.6821 4.4692C11.7724 4.39642 11.8848 4.35673 12.0008 4.35673C12.1168 4.35673 12.2293 4.39642 12.3196 4.4692L22.1208 12.5417C22.1714 12.5836 22.2298 12.6151 22.2925 12.6344C22.3553 12.6537 22.4213 12.6605 22.4867 12.6543C22.5521 12.6481 22.6156 12.6291 22.6737 12.5983C22.7317 12.5676 22.7831 12.5257 22.825 12.475L23.8875 11.1834C23.9293 11.1325 23.9607 11.0738 23.9797 11.0107C23.9988 10.9477 24.0053 10.8815 23.9987 10.8159C23.9921 10.7504 23.9726 10.6868 23.9414 10.6288C23.9101 10.5708 23.8677 10.5195 23.8166 10.4779Z" fill="white"/>
</g>
<defs>
<clipPath id="clip0">
<rect width="24" height="21.3333" fill="white"/>
</clipPath>
</defs>
</svg>
