<svg width="30" height="30" viewBox="0 0 30 30" fill="none" xmlns="http://www.w3.org/2000/svg">
<path d="M15 11.0951C12.8496 11.0951 11.0947 12.85 11.0947 15.0004C11.0947 17.1508 12.8496 18.9057 15 18.9057C17.1504 18.9057 18.9053 17.1508 18.9053 15.0004C18.9053 12.85 17.1504 11.0951 15 11.0951ZM26.7129 15.0004C26.7129 13.3832 26.7276 11.7807 26.6368 10.1664C26.5459 8.2914 26.1182 6.62734 24.7471 5.25624C23.3731 3.88222 21.7119 3.45741 19.8369 3.36659C18.2198 3.27577 16.6172 3.29042 15.003 3.29042C13.3858 3.29042 11.7832 3.27577 10.169 3.36659C8.29397 3.45741 6.6299 3.88515 5.25881 5.25624C3.88478 6.63027 3.45998 8.2914 3.36916 10.1664C3.27834 11.7836 3.29299 13.3861 3.29299 15.0004C3.29299 16.6146 3.27834 18.2201 3.36916 19.8344C3.45998 21.7094 3.88771 23.3734 5.25881 24.7445C6.63283 26.1185 8.29397 26.5434 10.169 26.6342C11.7862 26.725 13.3887 26.7103 15.003 26.7103C16.6201 26.7103 18.2227 26.725 19.8369 26.6342C21.7119 26.5434 23.376 26.1156 24.7471 24.7445C26.1211 23.3705 26.5459 21.7094 26.6368 19.8344C26.7305 18.2201 26.7129 16.6176 26.7129 15.0004ZM15 21.0092C11.6748 21.0092 8.99123 18.3256 8.99123 15.0004C8.99123 11.6752 11.6748 8.99159 15 8.99159C18.3252 8.99159 21.0088 11.6752 21.0088 15.0004C21.0088 18.3256 18.3252 21.0092 15 21.0092ZM21.2549 10.1488C20.4785 10.1488 19.8516 9.52187 19.8516 8.7455C19.8516 7.96913 20.4785 7.34218 21.2549 7.34218C22.0313 7.34218 22.6582 7.96913 22.6582 8.7455C22.6585 8.92985 22.6223 9.11244 22.5519 9.2828C22.4814 9.45316 22.3781 9.60796 22.2477 9.73831C22.1174 9.86867 21.9626 9.97203 21.7922 10.0425C21.6219 10.1129 21.4393 10.1491 21.2549 10.1488Z" fill="#FF725E"/>
</svg>
