<svg xmlns="http://www.w3.org/2000/svg" xmlns:xlink="http://www.w3.org/1999/xlink" width="569" height="580" fill="none" xmlns:v="https://vecta.io/nano"><style><![CDATA[.B{fill-rule:evenodd}.C{color-interpolation-filters:sRGB}.D{flood-opacity:0}.E{stroke:#000}.F{fill:#0d0dff}.G{fill:#ff725e}.H{stroke-width:.25}]]></style><g filter="url(#A)"><use xlink:href="#q" class="B F"/><use xlink:href="#q" class="E"/></g><g filter="url(#B)"><use xlink:href="#r" class="B G"/><use xlink:href="#r" class="E"/></g><g filter="url(#C)"><use xlink:href="#s" class="B G"/><use xlink:href="#s" class="E"/></g><g filter="url(#D)"><path d="M404.823 506.907l-.109-.788c-.649.481-1.312 1.167-1.393 2.006-.176 1.705-2.037 1.855-4.597 1.705-2.552-.157-5.101-6.037-5.101-6.963s3.575-5.403 5.612-5.403c1.319 0 3.208 1.285 4.71 2.198-.063-.676-.074-1.192-.042-1.403.183-1 1.466-12.478-.737-13.642-2.193-1.166-4.385-12.811-5.119-13.977-.729-1.157-8.788-.494-9.705-1.83-.895-1.304-7.689-.035-7.837-1.285-1.054 1.416-2.238 2.974-2.834 3.624-1.22 1.33-4.636.439-5.123 2.657-.493 2.22-4.635 4.444-6.588 4.444s-3.42 3.099-3.42 5.098c0 1.99-3.899 4.66-7.075 4.66-3.17 0-2.193 2.435-3.173 5.543-.97 3.099-2.433 3.327-7.805 3.327-5.362 0-5.613-.449-9.769-2.878-4.146-2.442-5.362 1.99-5.602 3.983-.247 1.996-5.862 5.992-7.569 7.761-1.706 1.779-5.855.452-8.291.452-2.443 0-1.467-1.996-1.467-3.329s1.22-.443 1.703-1.779c.493-1.323-1.703-6.21-2.683-8.424-.412-.962-2.115-1.75-3.906-2.336v27.401c0 2.438-4.396 3.544-5.362 4.88-.98 1.327-7.086.221-10.495.221-3.416 0-2.683-3.108-4.393-5.322-1.699-2.215-4.635.66-4.635 2.214 0 1.173-1.53.955-3.536.775 2.675 3.843 5.006 8.335 6.225 11.982 1.95 5.883 6.706 11.417 7.929 14.852 1.216 3.445 2.563 6.662 0 6.989-2.563.334-2.563 2.333.116 6.105 2.687 3.765.367 5.989 2.687 6.428 2.316.445 1.586 1.769 3.412 1.887 1.837.109 3.18 1.772 4.4 3.214 1.213 1.446 4.026 1.446 5.362-.333 1.343-1.772 5.492-2.326 9.762-2.326s3.419-1.67 7.565-2.779c4.146-1.099 9.148-1.214 12.688-.099 3.539 1.102 6.225.099 7.932-.884 1.706-1.003 4.999 1.551 5.249-1.003.24-2.554 3.656-2.115 6.832-2.115 3.169 0 10.855-4.544 16.957-9.755s16.227-16.637 19.647-21.847c3.412-5.208 9.028-9.649 11.834-11.975 2.091-1.744 3.307-7.88 3.885-12.35-2.88-.042-6.141.419-6.141.419zm-25.446 24.79c0 1.778-4.393-.446-5.362 1.326-.98 1.779-1.96 3.993-1.96 3.993l-3.416-.445-4.876-6.21s3.899-4.874 4.876-6.653c.976-1.772 7.318-4.88 8.299-3.105.969 1.772 5.362 3.99 5.362 5.762.007 1.781-2.923 3.553-2.923 5.332z" class="B G"/><path d="M404.823 506.907l-.494.08.078.484.486-.068-.07-.496zm-.109-.788l.496-.062-.106-.849-.688.509.298.402zm-1.393 2.006l.498.052v-.004l-.498-.048zm-4.597 1.705l-.031.499h.002l.029-.499zm5.221-10.168l-.26.427.851.518-.093-.992-.498.047zm-.042-1.403l-.492-.091-.001.008-.002.008.495.075zm-.737-13.642l-.235.442.002.001.233-.443zm-5.119-13.977l.424-.266-.001-.001-.423.267zm-9.705-1.83l.412-.283-.412.283zm-7.837-1.285l.497-.059-.148-1.247-.75 1.007.401.299zm-2.834 3.624l.368.338h.001l-.369-.338zm-5.123 2.657l.489.108v-.001l-.489-.107zm-20.256 19.745l-.477-.15v.001l.477.149zm-17.574.449l-.254.431.002.001.252-.432zm-5.602 3.983l.496.061.001-.001-.497-.06zm-7.569 7.761l-.36-.347v.001l.36.346zm-8.055-4.656l-.469-.175-.001.005.47.17zm-2.683-8.424l-.459.197.002.005.457-.202zm-3.906-2.336l.156-.475-.656-.215v.69h.5zm-5.362 32.281l.402.297.003-.004-.405-.293zm-14.888-5.101l-.396.304.001.001.395-.305zm-8.171 2.989l.044-.498-1.067-.095.612.879.411-.286zm6.225 11.982l.475-.157v-.002l-.475.159zm7.929 14.852l.471-.166v-.001l-.471.167zm0 6.989l-.063-.496h-.001l.064.496zm.116 6.105l-.407.289v.001l.407-.29zm2.687 6.428l.094-.491h-.001l-.093.491zm3.412 1.887l-.032.499h.003l.029-.499zm4.4 3.214l.383-.321-.001-.002-.382.323zm5.362-.333l-.399-.302-.001.002.4.3zm17.327-5.105l-.128-.483h-.001l.129.483zm12.688-.099l-.151.477h.002l.149-.477zm7.932-.884l.249.433.004-.002-.253-.431zm5.249-1.003l.497.048.001-.002-.498-.046zm23.789-11.87l-.325-.38.325.38zm19.647-21.847l.418.274-.418-.274zm11.834-11.975l.319.384h.001l-.32-.384zm3.885-12.35l.496.064.072-.556-.561-.008-.007.5zm-36.949 26.535l.438.242.001-.002-.439-.24zm-1.96 3.993l-.065.496.371.048.151-.341-.457-.203zm-3.416-.445l-.393.309.126.16.202.027.065-.496zm-4.876-6.21l-.39-.313-.248.31.245.311.393-.308zm4.876-6.653l-.438-.241v.001l.438.24zm8.299-3.105l.438-.24-.001-.002-.437.242zm5.362 5.762h-.5v.002l.5-.002zm22.523-19.458l.494-.079-.008-.052-.023-.154-.076-.565-.992.124.078.584.024.162.007.044c.002.016.002.016.496-.064zm-.407-1.19c-.67.497-1.49 1.296-1.592 2.36l.995.096c.059-.614.565-1.187 1.192-1.652l-.595-.804zm-1.592 2.357c-.034.331-.145.552-.298.713-.159.168-.399.306-.748.406-.715.205-1.74.213-3.024.138l-.059.998c1.275.075 2.46.083 3.359-.175.459-.132.878-.342 1.197-.677.325-.342.514-.779.568-1.3l-.995-.103zm-4.069 1.257c-.459-.028-.988-.325-1.554-.882-.556-.546-1.089-1.286-1.555-2.068s-.852-1.584-1.122-2.246l-.307-.853c-.074-.247-.094-.379-.094-.415h-1c0 .195.06.449.135.702a10.83 10.83 0 0 0 .34.943c.288.705.697 1.555 1.189 2.381s1.073 1.64 1.713 2.269c.629.619 1.376 1.117 2.193 1.167l.062-.998zm-4.632-6.464c0 .007.009-.076.108-.28.088-.183.223-.413.398-.676.351-.525.844-1.151 1.402-1.751s1.171-1.164 1.754-1.572c.602-.42 1.1-.624 1.45-.624v-1c-.669 0-1.381.356-2.023.804-.659.462-1.324 1.077-1.913 1.711s-1.118 1.302-1.502 1.877a6.86 6.86 0 0 0-.467.796c-.104.217-.207.477-.207.715h1zm5.112-4.903c.526 0 1.233.266 2.053.699.807.426 1.629.959 2.397 1.426l.52-.854-2.45-1.457c-.83-.438-1.727-.814-2.52-.814v1zm5.208 1.651c-.064-.681-.067-1.139-.046-1.282l-.989-.149c-.042.28-.024.854.039 1.525l.996-.094zm-.048-1.266c.097-.533.466-3.68.534-6.839.035-1.58-.005-3.188-.198-4.485-.096-.647-.234-1.239-.431-1.718-.192-.468-.471-.905-.9-1.132l-.467.885c.121.064.284.24.442.626.154.375.277.878.367 1.487.18 1.213.222 2.755.188 4.315-.068 3.122-.433 6.214-.519 6.68l.984.181zm-.994-14.173c-.155-.083-.372-.299-.631-.712-.25-.399-.506-.925-.763-1.549-.515-1.247-1.011-2.827-1.467-4.424l-1.209-4.469-.466-1.643c-.13-.419-.262-.794-.394-1.005l-.847.532c.051.08.148.324.286.77l.455 1.606 1.214 4.484 1.503 4.53c.268.65.549 1.234.841 1.699.284.452.615.855 1.008 1.064l.47-.883zm-4.931-13.803c-.192-.305-.553-.466-.857-.565-.333-.108-.745-.187-1.192-.25-.895-.124-2.022-.193-3.124-.265l-3.075-.29c-.435-.07-.793-.152-1.06-.248-.285-.104-.385-.195-.408-.228l-.824.566c.206.301.558.481.892.602.352.127.78.221 1.241.296.923.148 2.064.227 3.169.3l3.051.258c.425.059.77.128 1.02.21.28.091.332.163.321.147l.846-.533zm-9.716-1.846c-.202-.295-.528-.463-.839-.569-.321-.109-.701-.177-1.1-.22-.797-.088-1.764-.09-2.671-.091l-2.421-.074c-.321-.037-.543-.089-.676-.146-.143-.062-.058-.071-.045.039l-.993.118c.05.422.379.647.64.76.27.117.61.182.96.222.707.081 1.631.08 2.534.081l2.563.085c.366.04.665.097.887.173.233.079.315.156.337.188l.824-.566zm-8.65-1.301l-2.802 3.585.738.676c.616-.674 1.818-2.255 2.866-3.664l-.802-.597zm-2.802 3.585c-.209.229-.542.391-1.011.52-.48.133-.983.205-1.558.324-.54.112-1.125.263-1.611.56-.51.312-.908.78-1.062 1.483l.977.215c.089-.406.3-.657.606-.844.329-.201.766-.326 1.293-.435l1.622-.339c.529-.146 1.081-.372 1.481-.808l-.737-.676zm-5.242 2.886c-.096.434-.384.912-.839 1.398-.452.481-1.04.941-1.684 1.341-1.308.813-2.737 1.314-3.577 1.314v1c1.112 0 2.731-.611 4.105-1.465.698-.433 1.36-.946 1.885-1.506s.936-1.189 1.087-1.865l-.977-.217zm-6.1 4.053c-1.252 0-2.237.976-2.873 2.044-.651 1.091-1.047 2.453-1.047 3.554h1c0-.898.335-2.085.906-3.043.584-.981 1.309-1.555 2.014-1.555v-1zm-3.92 5.598c0 .34-.171.773-.552 1.26-.375.478-.919.964-1.572 1.4-1.314.878-2.987 1.5-4.451 1.5v1c1.712 0 3.576-.713 5.006-1.668.719-.48 1.348-1.034 1.804-1.616.449-.573.765-1.221.765-1.876h-1zm-6.575 4.16c-.85 0-1.506.162-1.995.529-.494.37-.743.892-.895 1.444-.148.538-.222 1.181-.315 1.822-.094.658-.212 1.36-.445 2.098l.954.301c.257-.817.384-1.584.481-2.257l.289-1.698c.123-.446.286-.727.531-.91s.659-.329 1.395-.329v-1zm-3.65 5.894c-.234.747-.485 1.278-.79 1.668-.297.38-.662.647-1.164.84-.513.196-1.174.317-2.063.385s-1.968.083-3.311.083v1l3.388-.086c.927-.071 1.699-.201 2.344-.449a3.57 3.57 0 0 0 1.594-1.157c.41-.524.705-1.183.956-1.985l-.954-.299zm-7.328 2.976c-2.681 0-4.011-.115-5.179-.503-1.188-.394-2.224-1.071-4.338-2.307l-.504.864c2.042 1.193 3.21 1.955 4.527 2.392 1.336.444 2.812.554 5.494.554v-1zm-9.515-2.809c-1.1-.647-2.069-.877-2.917-.752-.855.126-1.508.6-1.991 1.197-.944 1.165-1.321 2.889-1.444 3.909l.993.12c.117-.973.467-2.461 1.228-3.4.369-.455.813-.756 1.359-.836.553-.082 1.291.05 2.264.624l.508-.862zm-6.352 4.353c-.019.153-.096.365-.26.64-.16.27-.387.572-.67.901-.566.658-1.324 1.382-2.144 2.113l-2.455 2.109-1.904 1.712.72.694c.406-.421 1.057-.986 1.832-1.644l2.473-2.125c.829-.739 1.627-1.498 2.236-2.207.305-.354.571-.705.772-1.042s.35-.682.392-1.029l-.992-.122zm-7.433 7.476c-.332.345-.802.562-1.405.676s-1.312.118-2.072.064l-2.308-.258-2.146-.184v1c.572 0 1.258.078 2.02.176l2.364.264c.795.056 1.599.058 2.327-.08s1.419-.422 1.941-.966l-.721-.692zm-7.931.298c-.554 0-.816-.115-.942-.218-.113-.094-.186-.238-.21-.493-.024-.266.012-.586.066-.965.05-.355.119-.775.119-1.153h-1c0 .288-.053.617-.109 1.012-.053.369-.108.799-.072 1.198.038.411.179.85.57 1.172.378.312.91.447 1.578.447v-1zm-.967-2.829c0-.13.015-.207.029-.249s.024-.049.027-.053c.019-.02.062-.046.26-.107.165-.05.443-.126.701-.303.276-.191.503-.474.656-.897l-.94-.34c-.089.246-.195.352-.283.413-.107.073-.225.11-.425.171-.167.05-.46.135-.684.364-.247.252-.341.595-.341 1.001h1zm1.671-1.604c.097-.259.114-.56.098-.854a6.32 6.32 0 0 0-.151-.993c-.159-.71-.426-1.538-.734-2.378l-1.907-4.577-.914.405 1.882 4.516c.302.824.552 1.604.697 2.252.072.324.116.603.128.831.013.235-.009.377-.036.448l.937.35zm-2.691-8.796c-.276-.642-.934-1.148-1.653-1.549-.741-.412-1.648-.768-2.557-1.065l-.312.95c.882.289 1.721.621 2.383.989.683.381 1.083.75 1.22 1.069l.919-.394zm-4.866-2.139v27.401h1v-27.401h-1zm0 27.401c0 .445-.197.857-.571 1.266-.379.415-.91.794-1.509 1.161l-.908.53-.886.511c-.543.327-1.084.692-1.393 1.119l.81.586c.174-.241.544-.515 1.098-.848l.865-.498.937-.547c.621-.381 1.249-.819 1.724-1.339.481-.526.833-1.167.833-1.941h-1zm-5.264 4.583c-.041.055-.14.138-.361.217-.215.078-.504.138-.865.177-.721.079-1.65.067-2.682.012l-6.185-.388v1c1.694 0 3.999.273 6.132.387 1.043.055 2.038.071 2.843-.017.403-.043.778-.115 1.098-.23.314-.114.62-.287.824-.564l-.804-.594zm-10.093.018c-.776 0-1.257-.175-1.589-.421s-.575-.618-.788-1.109c-.225-.517-.375-1.046-.62-1.701-.232-.622-.528-1.286-1-1.897l-.791.611c.383.496.636 1.052.854 1.635l.639 1.75c.245.564.571 1.112 1.11 1.513.545.406 1.253.619 2.185.619v-1zm-3.996-5.127c-.508-.662-1.145-.979-1.821-1.002-.653-.022-1.282.231-1.81.586a4.98 4.98 0 0 0-1.332 1.345c-.329.494-.569 1.062-.569 1.59h1c0-.25.126-.623.401-1.036.268-.402.643-.79 1.058-1.069s.843-.429 1.218-.416c.353.012.72.166 1.062.611l.793-.609zm-5.532 2.519c0 .171-.048.223-.086.253-.064.052-.204.114-.485.145-.569.062-1.383-.028-2.421-.121l-.089.996c.968.087 1.922.196 2.62.119.353-.039.72-.131 1.005-.362.312-.254.456-.614.456-1.03h-1zm-3.447 1.061c2.654 3.811 4.96 8.261 6.162 11.854l.949-.317c-1.238-3.7-3.592-8.235-6.29-12.108l-.821.571zm6.162 11.853c.995 3.003 2.7 5.902 4.287 8.451l2.205 3.557c.645 1.088 1.151 2.044 1.44 2.855l.942-.335c-.323-.907-.87-1.931-1.522-3.03s-1.429-2.31-2.216-3.575c-1.585-2.547-3.233-5.357-4.187-8.237l-.949.314zm7.931 14.862c.621 1.758 1.234 3.354 1.393 4.562.08.603.031 1.016-.109 1.279-.121.225-.353.419-.875.485l.126.992c.759-.096 1.32-.427 1.63-1.005.289-.54.309-1.208.22-1.881-.177-1.343-.846-3.079-1.442-4.765l-.943.333zm.408 6.326c-.695.091-1.291.302-1.714.692-.441.406-.639.951-.63 1.574.009.606.211 1.293.562 2.048s.874 1.619 1.555 2.576l.815-.579c-.659-.928-1.144-1.733-1.463-2.419-.322-.692-.463-1.233-.469-1.64-.005-.39.11-.643.307-.824.213-.196.579-.36 1.165-.436l-.128-.992zm-.227 6.891c1.261 1.768 1.344 3.151 1.388 4.192.011.262.021.528.048.768a2.37 2.37 0 0 0 .182.726c.24.522.7.814 1.383.943l.186-.982c-.478-.091-.597-.242-.659-.377-.044-.096-.077-.228-.099-.422s-.03-.419-.041-.698c-.048-1.121-.148-2.733-1.574-4.731l-.814.581zm2.999 6.629c.528.101.852.247 1.073.392s.365.309.528.504c.155.186.355.44.654.636.312.205.697.329 1.22.363l.065-.998c-.391-.025-.599-.111-.736-.201-.151-.099-.256-.226-.436-.441-.173-.207-.394-.466-.745-.697s-.804-.419-1.434-.54l-.189.982zm3.478 1.895c.768.046 1.462.417 2.137.989s1.291 1.317 1.91 2.049l.764-.646c-.601-.709-1.271-1.522-2.027-2.165-.762-.646-1.657-1.161-2.725-1.225l-.059.998zm4.046 3.037c.728.867 1.899 1.267 3.038 1.22 1.146-.047 2.334-.546 3.107-1.575l-.8-.6c-.564.75-1.45 1.139-2.348 1.176-.904.037-1.746-.286-2.231-.864l-.766.643zm6.143-.353c.554-.73 1.764-1.283 3.487-1.64 1.692-.35 3.758-.488 5.877-.488v-1c-2.152 0-4.294.139-6.08.509-1.755.363-3.291.973-4.081 2.015l.797.604zm9.364-2.128c1.099 0 1.898-.108 2.543-.299.652-.194 1.122-.466 1.563-.758.849-.562 1.606-1.209 3.588-1.739l-.258-.966c-2.164.579-3.053 1.322-3.882 1.871-.399.264-.775.479-1.295.633-.526.156-1.222.258-2.259.258v1zm7.693-2.795c4.079-1.082 8.982-1.186 12.409-.106l.301-.954c-3.652-1.15-8.754-1.024-12.966.093l.256.967zm12.411-.106c3.715 1.157 6.548.1 8.33-.928l-.499-.867c-1.63.94-4.169 1.888-7.534.841l-.297.954zm8.334-.93c.287-.169.681-.21 1.199-.155.53.056 1.047.19 1.629.296.525.095 1.14.175 1.654-.013.277-.101.522-.278.703-.55.176-.265.272-.591.308-.964l-.995-.097c-.026.265-.087.419-.146.507-.054.081-.12.131-.214.165-.227.083-.589.066-1.131-.032-.486-.088-1.128-.245-1.703-.306-.587-.062-1.245-.046-1.811.287l.507.862zm5.494-1.388c.048-.512.245-.834.533-1.062.309-.242.761-.408 1.364-.506 1.228-.201 2.792-.093 4.437-.093v-1c-1.532 0-3.264-.112-4.598.106-.678.111-1.323.315-1.822.708-.518.409-.838.989-.91 1.754l.996.093zm6.334-1.661c.89 0 2.037-.314 3.315-.828 1.29-.519 2.761-1.262 4.314-2.163 3.108-1.803 6.58-4.26 9.653-6.883l-.65-.761c-3.029 2.587-6.452 5.008-9.504 6.779-1.527.886-2.953 1.605-4.186 2.1-1.245.501-2.248.756-2.942.756v1zm17.281-9.874c6.139-5.238 16.292-16.7 19.741-21.954l-.836-.549c-3.391 5.167-13.48 16.559-19.554 21.742l.649.761zm19.741-21.954c3.362-5.131 8.91-9.522 11.735-11.865l-.638-.769c-2.787 2.31-8.471 6.802-11.934 12.085l.837.549zm11.736-11.865c.606-.505 1.111-1.293 1.541-2.209.433-.925.808-2.024 1.131-3.195.646-2.342 1.098-5.02 1.389-7.266l-.992-.128c-.287 2.223-.732 4.849-1.361 7.128-.315 1.14-.672 2.181-1.073 3.037-.405.864-.835 1.498-1.275 1.865l.64.768zm3.572-13.234c-1.465-.021-3.021.085-4.204.196l-1.45.156-.414.052-.111.015c-.012.002-.022.003-.029.004s-.01.001.06.496l.07.496c.014-.002.023-.004.035-.005.024-.004.06-.008.106-.015l.404-.051 1.422-.152c1.167-.11 2.682-.213 4.097-.192l.014-1zm-32.094 25.709c0 .109-.028.126-.03.128-.02.018-.084.059-.252.087-.349.056-.852.011-1.49-.047-.597-.055-1.293-.119-1.905-.042s-1.268.311-1.624.961l.878.479c.129-.236.389-.388.87-.448s1.068-.012 1.69.045c.582.054 1.237.121 1.742.039.259-.042.545-.132.77-.34.242-.224.351-.527.351-.862h-1zm-5.3 1.085a51.16 51.16 0 0 0-1.361 2.691l-.448.962-.125.278-.034.074c-.003.009-.006.015-.008.02s-.003.007.454.209l.457.203c.005-.01.007-.017.011-.025l.032-.072.123-.272.441-.949c.366-.772.851-1.76 1.334-2.636l-.876-.483zm-1.457 3.738l-3.417-.445-.129.992 3.416.445.13-.992zm-3.088-.258l-4.875-6.21-.787.617 4.876 6.211.786-.618zm-5.269-5.901l.391.312.044-.056.126-.158.457-.579 1.452-1.876c1.09-1.432 2.334-3.127 2.844-4.055l-.876-.481c-.467.849-1.66 2.481-2.764 3.93l-1.442 1.864-.454.575-.125.157c-.014.018-.025.031-.032.041s-.011.013.379.326zm5.314-6.411c.184-.334.678-.805 1.416-1.312a14.64 14.64 0 0 1 2.489-1.352c.892-.379 1.754-.635 2.429-.698.724-.067 1.003.101 1.089.257l.875-.484c-.404-.731-1.286-.84-2.057-.769-.819.076-1.788.375-2.726.773-.944.401-1.889.916-2.665 1.449-.757.519-1.422 1.101-1.726 1.653l.876.483zm7.422-3.107c.287.525.802 1.045 1.354 1.533.558.493 1.216 1.007 1.813 1.495.609.498 1.16.974 1.557 1.426.412.467.577.818.577 1.068h1c0-.637-.385-1.228-.827-1.729-.456-.519-1.064-1.04-1.674-1.539-.623-.51-1.245-.993-1.783-1.47-.544-.481-.942-.903-1.14-1.264l-.877.48zm5.301 5.524c.001.31-.127.66-.38 1.07s-.594.827-.965 1.277c-.36.438-.75.909-1.046 1.387s-.532 1.016-.532 1.596h1c0-.31.129-.659.383-1.07s.596-.827.967-1.277c.36-.438.75-.909 1.045-1.388s.53-1.019.528-1.599l-1 .004z" fill="#000"/></g><g filter="url(#E)"><use xlink:href="#t" class="B F"/><use xlink:href="#t" class="E"/></g><g filter="url(#F)"><use xlink:href="#u" class="B F"/><use xlink:href="#u" class="E"/></g><g filter="url(#G)"><use xlink:href="#v" class="B F"/><use xlink:href="#v" class="E"/></g><g filter="url(#H)"><use xlink:href="#w" class="B G"/><use xlink:href="#w" class="E"/></g><g filter="url(#I)"><use xlink:href="#x" class="B G"/><use xlink:href="#x" class="E"/></g><g filter="url(#J)"><use xlink:href="#y" class="B F"/><use xlink:href="#y" class="E"/></g><g filter="url(#K)"><use xlink:href="#z" class="B F"/><use xlink:href="#z" class="E"/></g><g filter="url(#L)"><use xlink:href="#AA" class="B G"/><use xlink:href="#AA" stroke="#ff725e"/></g><g filter="url(#M)"><use xlink:href="#AB" class="B F"/><use xlink:href="#AB" class="E"/></g><g filter="url(#N)"><use xlink:href="#AC" class="B F"/><use xlink:href="#AC" class="E"/></g><g filter="url(#O)"><use xlink:href="#AD" class="B F"/><use xlink:href="#AD" stroke="#868686" class="H"/></g><g filter="url(#P)"><use xlink:href="#AE" class="B G"/><use xlink:href="#AE" class="E"/></g><g filter="url(#Q)"><use xlink:href="#AF" class="B F"/><use xlink:href="#AF" class="E"/></g><g filter="url(#R)"><use xlink:href="#AG" class="B F"/><use xlink:href="#AG" class="E"/></g><g filter="url(#S)"><use xlink:href="#AH" class="B G"/><use xlink:href="#AH" class="E"/></g><g filter="url(#T)"><use xlink:href="#AI" class="B F"/><use xlink:href="#AI" class="E"/></g><g filter="url(#U)"><use xlink:href="#AJ" class="B F"/><use xlink:href="#AJ" class="E"/></g><g filter="url(#V)"><use xlink:href="#AK" class="B F"/><use xlink:href="#AK" class="E"/></g><g filter="url(#W)"><use xlink:href="#AL" class="B F"/><use xlink:href="#AL" class="E"/></g><g filter="url(#X)"><use xlink:href="#AM" class="B G"/><use xlink:href="#AM" class="E"/></g><g filter="url(#Y)"><use xlink:href="#AN" class="B F"/><use xlink:href="#AN" class="E H"/></g><g filter="url(#Z)"><use xlink:href="#AO" class="B F"/><use xlink:href="#AO" class="E"/></g><g filter="url(#a)"><use xlink:href="#AP" class="B F"/><use xlink:href="#AP" class="E"/></g><g filter="url(#b)"><use xlink:href="#AQ" class="B G"/><use xlink:href="#AQ" class="E"/></g><g filter="url(#c)"><use xlink:href="#AR" class="B F"/><use xlink:href="#AR" class="E"/></g><g filter="url(#d)"><use xlink:href="#AS" class="B F"/><use xlink:href="#AS" class="E"/></g><g filter="url(#e)"><use xlink:href="#AT" class="B F"/><use xlink:href="#AT" class="E"/></g><g filter="url(#f)"><use xlink:href="#AU" class="B F"/><use xlink:href="#AU" class="E"/></g><g filter="url(#g)"><use xlink:href="#AV" class="B G"/><use xlink:href="#AV" class="E"/></g><g filter="url(#h)"><use xlink:href="#AW" class="B G"/><use xlink:href="#AW" class="E"/></g><g filter="url(#i)"><use xlink:href="#AX" class="B F"/><use xlink:href="#AX" class="E"/></g><g filter="url(#j)"><use xlink:href="#AY" class="B G"/><use xlink:href="#AY" class="E"/></g><g filter="url(#k)"><use xlink:href="#AZ" class="B F"/><use xlink:href="#AZ" class="E"/></g><g filter="url(#l)"><use xlink:href="#Aa" class="B G"/><use xlink:href="#Aa" class="E"/></g><g filter="url(#m)"><use xlink:href="#Ab" class="B F"/><use xlink:href="#Ab" class="E"/></g><g filter="url(#n)"><use xlink:href="#Ac" class="B G"/><use xlink:href="#Ac" class="E"/></g><g filter="url(#o)"><use xlink:href="#Ad" class="B F"/><use xlink:href="#Ad" class="E"/></g><g filter="url(#p)"><use xlink:href="#Ae" class="B F"/><use xlink:href="#Ae" stroke="#868686" class="H"/></g><defs><filter id="A" x="238.815" y="426.183" width="114.063" height="103.575" filterUnits="userSpaceOnUse" class="C"><feFlood result="A" class="D"/><feColorMatrix in="SourceAlpha" values="0 0 0 0 0 0 0 0 0 0 0 0 0 0 0 0 0 0 127 0"/><feOffset dy="2"/><feGaussianBlur stdDeviation="2"/><feColorMatrix values="0 0 0 0 0 0 0 0 0 0 0 0 0 0 0 0 0 0 0.01 0"/><feBlend in2="A"/><feBlend in="SourceGraphic"/></filter><filter id="B" x="343.283" y="415.635" width="74.218" height="61.364" filterUnits="userSpaceOnUse" class="C"><feFlood result="A" class="D"/><feColorMatrix in="SourceAlpha" values="0 0 0 0 0 0 0 0 0 0 0 0 0 0 0 0 0 0 127 0"/><feOffset dy="2"/><feGaussianBlur stdDeviation="2"/><feColorMatrix values="0 0 0 0 0 0 0 0 0 0 0 0 0 0 0 0 0 0 0.01 0"/><feBlend in2="A"/><feBlend in="SourceGraphic"/></filter><filter id="C" x="302.41" y="432.342" width="82.602" height="80.819" filterUnits="userSpaceOnUse" class="C"><feFlood result="A" class="D"/><feColorMatrix in="SourceAlpha" values="0 0 0 0 0 0 0 0 0 0 0 0 0 0 0 0 0 0 127 0"/><feOffset dy="2"/><feGaussianBlur stdDeviation="2"/><feColorMatrix values="0 0 0 0 0 0 0 0 0 0 0 0 0 0 0 0 0 0 0.01 0"/><feBlend in2="A"/><feBlend in="SourceGraphic"/></filter><filter id="D" x="273.459" y="464.219" width="142.073" height="115.281" filterUnits="userSpaceOnUse" class="C"><feFlood result="A" class="D"/><feColorMatrix in="SourceAlpha" values="0 0 0 0 0 0 0 0 0 0 0 0 0 0 0 0 0 0 127 0"/><feOffset dy="2"/><feGaussianBlur stdDeviation="2"/><feColorMatrix values="0 0 0 0 0 0 0 0 0 0 0 0 0 0 0 0 0 0 0.01 0"/><feBlend in2="A"/><feBlend in="SourceGraphic"/></filter><filter id="E" x="238.806" y="340.736" width="105.62" height="101.296" filterUnits="userSpaceOnUse" class="C"><feFlood result="A" class="D"/><feColorMatrix in="SourceAlpha" values="0 0 0 0 0 0 0 0 0 0 0 0 0 0 0 0 0 0 127 0"/><feOffset dy="2"/><feGaussianBlur stdDeviation="2"/><feColorMatrix values="0 0 0 0 0 0 0 0 0 0 0 0 0 0 0 0 0 0 0.01 0"/><feBlend in2="A"/><feBlend in="SourceGraphic"/></filter><filter id="F" x="318.43" y="358.03" width="104.032" height="84.549" filterUnits="userSpaceOnUse" class="C"><feFlood result="A" class="D"/><feColorMatrix in="SourceAlpha" values="0 0 0 0 0 0 0 0 0 0 0 0 0 0 0 0 0 0 127 0"/><feOffset dy="2"/><feGaussianBlur stdDeviation="2"/><feColorMatrix values="0 0 0 0 0 0 0 0 0 0 0 0 0 0 0 0 0 0 0.01 0"/><feBlend in2="A"/><feBlend in="SourceGraphic"/></filter><filter id="G" x="474.289" y="204.526" width="94.21" height="112.844" filterUnits="userSpaceOnUse" class="C"><feFlood result="A" class="D"/><feColorMatrix in="SourceAlpha" values="0 0 0 0 0 0 0 0 0 0 0 0 0 0 0 0 0 0 127 0"/><feOffset dy="2"/><feGaussianBlur stdDeviation="2"/><feColorMatrix values="0 0 0 0 0 0 0 0 0 0 0 0 0 0 0 0 0 0 0.01 0"/><feBlend in2="A"/><feBlend in="SourceGraphic"/></filter><filter id="H" x="32.525" y="13.14" width="109.033" height="81.599" filterUnits="userSpaceOnUse" class="C"><feFlood result="A" class="D"/><feColorMatrix in="SourceAlpha" values="0 0 0 0 0 0 0 0 0 0 0 0 0 0 0 0 0 0 127 0"/><feOffset dy="2"/><feGaussianBlur stdDeviation="2"/><feColorMatrix values="0 0 0 0 0 0 0 0 0 0 0 0 0 0 0 0 0 0 0.01 0"/><feBlend in2="A"/><feBlend in="SourceGraphic"/></filter><filter id="I" x="203.79" y=".5" width="43.363" height="69.16" filterUnits="userSpaceOnUse" class="C"><feFlood result="A" class="D"/><feColorMatrix in="SourceAlpha" values="0 0 0 0 0 0 0 0 0 0 0 0 0 0 0 0 0 0 127 0"/><feOffset dy="2"/><feGaussianBlur stdDeviation="2"/><feColorMatrix values="0 0 0 0 0 0 0 0 0 0 0 0 0 0 0 0 0 0 0.01 0"/><feBlend in2="A"/><feBlend in="SourceGraphic"/></filter><filter id="J" x="69.769" y="1.885" width="181.119" height="158.971" filterUnits="userSpaceOnUse" class="C"><feFlood result="A" class="D"/><feColorMatrix in="SourceAlpha" values="0 0 0 0 0 0 0 0 0 0 0 0 0 0 0 0 0 0 127 0"/><feOffset dy="2"/><feGaussianBlur stdDeviation="2"/><feColorMatrix values="0 0 0 0 0 0 0 0 0 0 0 0 0 0 0 0 0 0 0.01 0"/><feBlend in2="A"/><feBlend in="SourceGraphic"/></filter><filter id="K" x="220.528" y="36.445" width="133.892" height="119" filterUnits="userSpaceOnUse" class="C"><feFlood result="A" class="D"/><feColorMatrix in="SourceAlpha" values="0 0 0 0 0 0 0 0 0 0 0 0 0 0 0 0 0 0 127 0"/><feOffset dy="2"/><feGaussianBlur stdDeviation="2"/><feColorMatrix values="0 0 0 0 0 0 0 0 0 0 0 0 0 0 0 0 0 0 0.01 0"/><feBlend in2="A"/><feBlend in="SourceGraphic"/></filter><filter id="L" x=".5" y="169.837" width="56.032" height="42.491" filterUnits="userSpaceOnUse" class="C"><feFlood result="A" class="D"/><feColorMatrix in="SourceAlpha" values="0 0 0 0 0 0 0 0 0 0 0 0 0 0 0 0 0 0 127 0"/><feOffset dy="2"/><feGaussianBlur stdDeviation="2"/><feColorMatrix values="0 0 0 0 0 0 0 0 0 0 0 0 0 0 0 0 0 0 0.01 0"/><feBlend in2="A"/><feBlend in="SourceGraphic"/></filter><filter id="M" x="261.054" y="211.787" width="110.574" height="73.454" filterUnits="userSpaceOnUse" class="C"><feFlood result="A" class="D"/><feColorMatrix in="SourceAlpha" values="0 0 0 0 0 0 0 0 0 0 0 0 0 0 0 0 0 0 127 0"/><feOffset dy="2"/><feGaussianBlur stdDeviation="2"/><feColorMatrix values="0 0 0 0 0 0 0 0 0 0 0 0 0 0 0 0 0 0 0.01 0"/><feBlend in2="A"/><feBlend in="SourceGraphic"/></filter><filter id="N" x="164.946" y="190.978" width="106.356" height="81.241" filterUnits="userSpaceOnUse" class="C"><feFlood result="A" class="D"/><feColorMatrix in="SourceAlpha" values="0 0 0 0 0 0 0 0 0 0 0 0 0 0 0 0 0 0 127 0"/><feOffset dy="2"/><feGaussianBlur stdDeviation="2"/><feColorMatrix values="0 0 0 0 0 0 0 0 0 0 0 0 0 0 0 0 0 0 0.01 0"/><feBlend in2="A"/><feBlend in="SourceGraphic"/></filter><filter id="O" x="148.959" y="202.303" width="32.622" height="54.416" filterUnits="userSpaceOnUse" class="C"><feFlood result="A" class="D"/><feColorMatrix in="SourceAlpha" values="0 0 0 0 0 0 0 0 0 0 0 0 0 0 0 0 0 0 127 0"/><feOffset dy="2"/><feGaussianBlur stdDeviation="2"/><feColorMatrix values="0 0 0 0 0 0 0 0 0 0 0 0 0 0 0 0 0 0 0.01 0"/><feBlend in2="A"/><feBlend in="SourceGraphic"/></filter><filter id="P" x="141.29" y="211.788" width="24.435" height="48.078" filterUnits="userSpaceOnUse" class="C"><feFlood result="A" class="D"/><feColorMatrix in="SourceAlpha" values="0 0 0 0 0 0 0 0 0 0 0 0 0 0 0 0 0 0 127 0"/><feOffset dy="2"/><feGaussianBlur stdDeviation="2"/><feColorMatrix values="0 0 0 0 0 0 0 0 0 0 0 0 0 0 0 0 0 0 0.01 0"/><feBlend in2="A"/><feBlend in="SourceGraphic"/></filter><filter id="Q" x="213.078" y="196.374" width="70.513" height="95.67" filterUnits="userSpaceOnUse" class="C"><feFlood result="A" class="D"/><feColorMatrix in="SourceAlpha" values="0 0 0 0 0 0 0 0 0 0 0 0 0 0 0 0 0 0 127 0"/><feOffset dy="2"/><feGaussianBlur stdDeviation="2"/><feColorMatrix values="0 0 0 0 0 0 0 0 0 0 0 0 0 0 0 0 0 0 0.01 0"/><feBlend in2="A"/><feBlend in="SourceGraphic"/></filter><filter id="R" x="71.249" y="215.453" width="59.354" height="55.756" filterUnits="userSpaceOnUse" class="C"><feFlood result="A" class="D"/><feColorMatrix in="SourceAlpha" values="0 0 0 0 0 0 0 0 0 0 0 0 0 0 0 0 0 0 127 0"/><feOffset dy="2"/><feGaussianBlur stdDeviation="2"/><feColorMatrix values="0 0 0 0 0 0 0 0 0 0 0 0 0 0 0 0 0 0 0.01 0"/><feBlend in2="A"/><feBlend in="SourceGraphic"/></filter><filter id="S" x="115.368" y="211.76" width="44.252" height="57.522" filterUnits="userSpaceOnUse" class="C"><feFlood result="A" class="D"/><feColorMatrix in="SourceAlpha" values="0 0 0 0 0 0 0 0 0 0 0 0 0 0 0 0 0 0 127 0"/><feOffset dy="2"/><feGaussianBlur stdDeviation="2"/><feColorMatrix values="0 0 0 0 0 0 0 0 0 0 0 0 0 0 0 0 0 0 0.01 0"/><feBlend in2="A"/><feBlend in="SourceGraphic"/></filter><filter id="T" x="16.494" y="199.727" width="70.852" height="51.079" filterUnits="userSpaceOnUse" class="C"><feFlood result="A" class="D"/><feColorMatrix in="SourceAlpha" values="0 0 0 0 0 0 0 0 0 0 0 0 0 0 0 0 0 0 127 0"/><feOffset dy="2"/><feGaussianBlur stdDeviation="2"/><feColorMatrix values="0 0 0 0 0 0 0 0 0 0 0 0 0 0 0 0 0 0 0.01 0"/><feBlend in2="A"/><feBlend in="SourceGraphic"/></filter><filter id="U" x="46.151" y="232.171" width="43.66" height="39.045" filterUnits="userSpaceOnUse" class="C"><feFlood result="A" class="D"/><feColorMatrix in="SourceAlpha" values="0 0 0 0 0 0 0 0 0 0 0 0 0 0 0 0 0 0 127 0"/><feOffset dy="2"/><feGaussianBlur stdDeviation="2"/><feColorMatrix values="0 0 0 0 0 0 0 0 0 0 0 0 0 0 0 0 0 0 0.01 0"/><feBlend in2="A"/><feBlend in="SourceGraphic"/></filter><filter id="V" x="31.803" y="220.615" width="32.9" height="33.001" filterUnits="userSpaceOnUse" class="C"><feFlood result="A" class="D"/><feColorMatrix in="SourceAlpha" values="0 0 0 0 0 0 0 0 0 0 0 0 0 0 0 0 0 0 127 0"/><feOffset dy="2"/><feGaussianBlur stdDeviation="2"/><feColorMatrix values="0 0 0 0 0 0 0 0 0 0 0 0 0 0 0 0 0 0 0.01 0"/><feBlend in2="A"/><feBlend in="SourceGraphic"/></filter><filter id="W" x=".893" y="81.601" width="78.223" height="60.085" filterUnits="userSpaceOnUse" class="C"><feFlood result="A" class="D"/><feColorMatrix in="SourceAlpha" values="0 0 0 0 0 0 0 0 0 0 0 0 0 0 0 0 0 0 127 0"/><feOffset dy="2"/><feGaussianBlur stdDeviation="2"/><feColorMatrix values="0 0 0 0 0 0 0 0 0 0 0 0 0 0 0 0 0 0 0.01 0"/><feBlend in2="A"/><feBlend in="SourceGraphic"/></filter><filter id="X" x=".895" y="83.192" width="110.2" height="110.102" filterUnits="userSpaceOnUse" class="C"><feFlood result="A" class="D"/><feColorMatrix in="SourceAlpha" values="0 0 0 0 0 0 0 0 0 0 0 0 0 0 0 0 0 0 127 0"/><feOffset dy="2"/><feGaussianBlur stdDeviation="2"/><feColorMatrix values="0 0 0 0 0 0 0 0 0 0 0 0 0 0 0 0 0 0 0.01 0"/><feBlend in2="A"/><feBlend in="SourceGraphic"/></filter><filter id="Y" x="39.844" y="103.52" width="146.129" height="124.722" filterUnits="userSpaceOnUse" class="C"><feFlood result="A" class="D"/><feColorMatrix in="SourceAlpha" values="0 0 0 0 0 0 0 0 0 0 0 0 0 0 0 0 0 0 127 0"/><feOffset dy="2"/><feGaussianBlur stdDeviation="2"/><feColorMatrix values="0 0 0 0 0 0 0 0 0 0 0 0 0 0 0 0 0 0 0.01 0"/><feBlend in2="A"/><feBlend in="SourceGraphic"/></filter><filter id="Z" x="143.785" y="115.356" width="136.36" height="100.023" filterUnits="userSpaceOnUse" class="C"><feFlood result="A" class="D"/><feColorMatrix in="SourceAlpha" values="0 0 0 0 0 0 0 0 0 0 0 0 0 0 0 0 0 0 127 0"/><feOffset dy="2"/><feGaussianBlur stdDeviation="2"/><feColorMatrix values="0 0 0 0 0 0 0 0 0 0 0 0 0 0 0 0 0 0 0.01 0"/><feBlend in2="A"/><feBlend in="SourceGraphic"/></filter><filter id="a" x="253.558" y="115.297" width="91.46" height="133.568" filterUnits="userSpaceOnUse" class="C"><feFlood result="A" class="D"/><feColorMatrix in="SourceAlpha" values="0 0 0 0 0 0 0 0 0 0 0 0 0 0 0 0 0 0 127 0"/><feOffset dy="2"/><feGaussianBlur stdDeviation="2"/><feColorMatrix values="0 0 0 0 0 0 0 0 0 0 0 0 0 0 0 0 0 0 0.01 0"/><feBlend in2="A"/><feBlend in="SourceGraphic"/></filter><filter id="b" x="342.443" y="45.949" width="97.404" height="91.235" filterUnits="userSpaceOnUse" class="C"><feFlood result="A" class="D"/><feColorMatrix in="SourceAlpha" values="0 0 0 0 0 0 0 0 0 0 0 0 0 0 0 0 0 0 127 0"/><feOffset dy="2"/><feGaussianBlur stdDeviation="2"/><feColorMatrix values="0 0 0 0 0 0 0 0 0 0 0 0 0 0 0 0 0 0 0.01 0"/><feBlend in2="A"/><feBlend in="SourceGraphic"/></filter><filter id="c" x="215.537" y="278.633" width="54.349" height="56.193" filterUnits="userSpaceOnUse" class="C"><feFlood result="A" class="D"/><feColorMatrix in="SourceAlpha" values="0 0 0 0 0 0 0 0 0 0 0 0 0 0 0 0 0 0 127 0"/><feOffset dy="2"/><feGaussianBlur stdDeviation="2"/><feColorMatrix values="0 0 0 0 0 0 0 0 0 0 0 0 0 0 0 0 0 0 0.01 0"/><feBlend in2="A"/><feBlend in="SourceGraphic"/></filter><filter id="d" x="233.756" y="267.994" width="67.12" height="75.38" filterUnits="userSpaceOnUse" class="C"><feFlood result="A" class="D"/><feColorMatrix in="SourceAlpha" values="0 0 0 0 0 0 0 0 0 0 0 0 0 0 0 0 0 0 127 0"/><feOffset dy="2"/><feGaussianBlur stdDeviation="2"/><feColorMatrix values="0 0 0 0 0 0 0 0 0 0 0 0 0 0 0 0 0 0 0.01 0"/><feBlend in2="A"/><feBlend in="SourceGraphic"/></filter><filter id="e" x="319.407" y="115.648" width="144.158" height="162.247" filterUnits="userSpaceOnUse" class="C"><feFlood result="A" class="D"/><feColorMatrix in="SourceAlpha" values="0 0 0 0 0 0 0 0 0 0 0 0 0 0 0 0 0 0 127 0"/><feOffset dy="2"/><feGaussianBlur stdDeviation="2"/><feColorMatrix values="0 0 0 0 0 0 0 0 0 0 0 0 0 0 0 0 0 0 0.01 0"/><feBlend in2="A"/><feBlend in="SourceGraphic"/></filter><filter id="f" x="437.463" y="157.898" width="64.179" height="52.463" filterUnits="userSpaceOnUse" class="C"><feFlood result="A" class="D"/><feColorMatrix in="SourceAlpha" values="0 0 0 0 0 0 0 0 0 0 0 0 0 0 0 0 0 0 127 0"/><feOffset dy="2"/><feGaussianBlur stdDeviation="2"/><feColorMatrix values="0 0 0 0 0 0 0 0 0 0 0 0 0 0 0 0 0 0 0.01 0"/><feBlend in2="A"/><feBlend in="SourceGraphic"/></filter><filter id="g" x="408.553" y="182.817" width="131.575" height="95.794" filterUnits="userSpaceOnUse" class="C"><feFlood result="A" class="D"/><feColorMatrix in="SourceAlpha" values="0 0 0 0 0 0 0 0 0 0 0 0 0 0 0 0 0 0 127 0"/><feOffset dy="2"/><feGaussianBlur stdDeviation="2"/><feColorMatrix values="0 0 0 0 0 0 0 0 0 0 0 0 0 0 0 0 0 0 0.01 0"/><feBlend in2="A"/><feBlend in="SourceGraphic"/></filter><filter id="h" x="415.622" y="258.61" width="76.095" height="82.43" filterUnits="userSpaceOnUse" class="C"><feFlood result="A" class="D"/><feColorMatrix in="SourceAlpha" values="0 0 0 0 0 0 0 0 0 0 0 0 0 0 0 0 0 0 127 0"/><feOffset dy="2"/><feGaussianBlur stdDeviation="2"/><feColorMatrix values="0 0 0 0 0 0 0 0 0 0 0 0 0 0 0 0 0 0 0.01 0"/><feBlend in2="A"/><feBlend in="SourceGraphic"/></filter><filter id="i" x="378.826" y="263.952" width="54.617" height="51.356" filterUnits="userSpaceOnUse" class="C"><feFlood result="A" class="D"/><feColorMatrix in="SourceAlpha" values="0 0 0 0 0 0 0 0 0 0 0 0 0 0 0 0 0 0 127 0"/><feOffset dy="2"/><feGaussianBlur stdDeviation="2"/><feColorMatrix values="0 0 0 0 0 0 0 0 0 0 0 0 0 0 0 0 0 0 0.01 0"/><feBlend in2="A"/><feBlend in="SourceGraphic"/></filter><filter id="j" x="492.431" y="386.596" width="68.694" height="115.511" filterUnits="userSpaceOnUse" class="C"><feFlood result="A" class="D"/><feColorMatrix in="SourceAlpha" values="0 0 0 0 0 0 0 0 0 0 0 0 0 0 0 0 0 0 127 0"/><feOffset dy="2"/><feGaussianBlur stdDeviation="2"/><feColorMatrix values="0 0 0 0 0 0 0 0 0 0 0 0 0 0 0 0 0 0 0.01 0"/><feBlend in2="A"/><feBlend in="SourceGraphic"/></filter><filter id="k" x="241.733" y="255.407" width="160.452" height="150.97" filterUnits="userSpaceOnUse" class="C"><feFlood result="A" class="D"/><feColorMatrix in="SourceAlpha" values="0 0 0 0 0 0 0 0 0 0 0 0 0 0 0 0 0 0 127 0"/><feOffset dy="2"/><feGaussianBlur stdDeviation="2"/><feColorMatrix values="0 0 0 0 0 0 0 0 0 0 0 0 0 0 0 0 0 0 0.01 0"/><feBlend in2="A"/><feBlend in="SourceGraphic"/></filter><filter id="l" x="376.85" y="313.897" width="22.149" height="25.137" filterUnits="userSpaceOnUse" class="C"><feFlood result="A" class="D"/><feColorMatrix in="SourceAlpha" values="0 0 0 0 0 0 0 0 0 0 0 0 0 0 0 0 0 0 127 0"/><feOffset dy="2"/><feGaussianBlur stdDeviation="2"/><feColorMatrix values="0 0 0 0 0 0 0 0 0 0 0 0 0 0 0 0 0 0 0.01 0"/><feBlend in2="A"/><feBlend in="SourceGraphic"/></filter><filter id="m" x="384.769" y="375.642" width="96.406" height="137.837" filterUnits="userSpaceOnUse" class="C"><feFlood result="A" class="D"/><feColorMatrix in="SourceAlpha" values="0 0 0 0 0 0 0 0 0 0 0 0 0 0 0 0 0 0 127 0"/><feOffset dy="2"/><feGaussianBlur stdDeviation="2"/><feColorMatrix values="0 0 0 0 0 0 0 0 0 0 0 0 0 0 0 0 0 0 0.01 0"/><feBlend in2="A"/><feBlend in="SourceGraphic"/></filter><filter id="n" x="379.457" y="302.724" width="98.843" height="91.735" filterUnits="userSpaceOnUse" class="C"><feFlood result="A" class="D"/><feColorMatrix in="SourceAlpha" values="0 0 0 0 0 0 0 0 0 0 0 0 0 0 0 0 0 0 127 0"/><feOffset dy="2"/><feGaussianBlur stdDeviation="2"/><feColorMatrix values="0 0 0 0 0 0 0 0 0 0 0 0 0 0 0 0 0 0 0.01 0"/><feBlend in2="A"/><feBlend in="SourceGraphic"/></filter><filter id="o" x="95.856" y="181.778" width="76.701" height="50.82" filterUnits="userSpaceOnUse" class="C"><feFlood result="A" class="D"/><feColorMatrix in="SourceAlpha" values="0 0 0 0 0 0 0 0 0 0 0 0 0 0 0 0 0 0 127 0"/><feOffset dy="2"/><feGaussianBlur stdDeviation="2"/><feColorMatrix values="0 0 0 0 0 0 0 0 0 0 0 0 0 0 0 0 0 0 0.01 0"/><feBlend in2="A"/><feBlend in="SourceGraphic"/></filter><filter id="p" x="407.539" y="369.578" width="34.071" height="65.353" filterUnits="userSpaceOnUse" class="C"><feFlood result="A" class="D"/><feColorMatrix in="SourceAlpha" values="0 0 0 0 0 0 0 0 0 0 0 0 0 0 0 0 0 0 127 0"/><feOffset dy="2"/><feGaussianBlur stdDeviation="2"/><feColorMatrix values="0 0 0 0 0 0 0 0 0 0 0 0 0 0 0 0 0 0 0.01 0"/><feBlend in2="A"/><feBlend in="SourceGraphic"/></filter><path id="q" d="M282.021 519.718c0-1.554 2.937-4.432 4.636-2.214 1.71 2.214.977 5.322 4.393 5.322 3.409 0 9.511 1.106 10.495-.221.966-1.336 5.362-2.445 5.362-4.88v-49.461c0-1.775 8.298 0 8.298-2.887v-25.728s6.096-.436 7.806-.882 7.812-3.329 9.278-2.438c1.463.878 3.409 3.993 4.386 2.877.973-1.108 3.419-3.329 5.859-3.329 1.329 0 3.511-.519 5.545-.964-.405-.651-.662-1.263-.662-1.731 0-1.878-14.853.375-17.331 1.128s-10.312 1.875-12.79.75-18.152 0-18.152 0l-2.891-2.628h-28.47c-2.888 0-4.957-.371-7.428-1.865-2.482-1.509-4.95-1.509-7.844-.387-2.884 1.128-1.647-1.497-3.709-1.497s-2.891 1.884-2.891 1.884l-2.573.612c-.272 2.282 1.953 6.496 4.646 9.806 2.806 3.438 6.219 9.866 8.052 15.301s7.083 11.533 8.415 15.641c1.35 4.098-.969 9.982.367 12.642 1.346 2.659 2.193 7.203 2.933 11.753.73 4.548 1.096 14.193 5.609 18.186 1.713 1.519 3.486 3.63 5.126 5.989 2.005.176 3.535.394 3.535-.779z"/><path id="r" d="M391.821 420.57l-1.216-2.426-7.075.208c-4.636 1.112-4.636 2.445-4.636 3.778 0 1.324-4.396 4.432-7.565 5.32s-6.593 7.543-8.542 8.424c-1.95.888-8.535-1.326-10.495-1.548-.889-.099-2.5.212-4.21.587 1.22 1.951 3.769 4.271 4.703 4.271 1.238 0 1.643 7.877 4.534 9.008 2.891 1.122 8.256 3.743 8.256 5.246s3.307 3.377 3.307 5.63 3.264 5.326 5.771 5.246c5.274-.157 5.82 1.842 5.82 3.172s6.959 0 7.865 1.327c.846 1.233 7.714.765 9.381 1.589 2.866-2.528 6.97-5.867 8.373-7.575 2.193-2.654.37-6.319 2.193-7.316 1.836-1.003 5.862-5.323 4.403-5.659-1.474-.327-.37-3.656-2.57-5.653-2.193-1.996 2.57-2.996 2.196-6.652-.366-3.66.733-10.982-.366-11.642-1.1-.676-6.23-1.003-9.515-3.002s-10.612-2.333-10.612-2.333z"/><path id="s" d="M374.653 464.307c-2.506.08-5.771-2.996-5.771-5.246s-3.307-4.124-3.307-5.63-5.362-4.124-8.256-5.246c-2.891-1.131-3.3-9.007-4.534-9.007-.934 0-3.483-2.32-4.702-4.272-2.035.446-4.217.965-5.546.965-2.439 0-4.886 2.22-5.859 3.329-.976 1.115-2.922-1.999-4.385-2.877-1.467-.891-7.566 1.996-9.279 2.438-1.706.449-7.805.881-7.805.881v25.729c0 2.887-8.299 1.115-8.299 2.887v22.059c1.794.59 3.494 1.378 3.906 2.336.977 2.215 3.173 7.101 2.683 8.425-.487 1.336-1.703.448-1.703 1.778s-.976 3.33 1.467 3.33c2.432 0 6.582 1.326 8.291-.452 1.707-1.769 7.323-5.765 7.569-7.761.24-1.993 1.456-6.425 5.602-3.983 4.156 2.432 4.403 2.877 9.769 2.877s6.832-.227 7.805-3.326c.98-3.111.003-5.544 3.173-5.544s7.075-2.669 7.075-4.659c0-1.999 1.463-5.098 3.42-5.098s6.095-2.221 6.589-4.445c.486-2.217 3.902-1.326 5.122-2.656.596-.651 1.78-2.205 2.834-3.624 0-.013-.032-.02-.032-.02-.007-1.346-.553-3.345-5.827-3.188z"/><path id="t" d="M248.802 428.68c2.062 0 .821 2.621 3.709 1.496s5.362-1.121 7.843.388c2.472 1.493 4.541 1.865 7.428 1.865h28.471l2.891 2.627s15.677-1.124 18.152 0 10.311 0 12.79-.749c.426-.132 1.237-.308 2.263-.491l-9.413-11.696.843-24.953 12.251.385 2.111-1.923 1.745-14.901c-.645-.285-1.389-.403-2.235-.08-2.563 1-4.755.67-7.318.67s-2.923 2.336-4.389 1.996c-1.471-.333-.367-4.329 0-5.989.366-1.669-2.197-4.656-4.033-5.989-1.827-1.336 2.196-9.648 1.103-10.648-1.103-.997-1.463-3.656-1.463-5.986s-1.83-1.003-5.493-1.003-4.025-1.66-4.025-1.66-4.397-1.003-6.589 0-1.834 6.992-3.293 6.653c-1.467-.337-5.863.336-9.515 1.333-3.663.999-5.122-.67-6.962-4.656-1.827-3.996-4.026-2.67-3.297-5.656.734-3.003-1.463-6.329-1.463-6.329s-24.155-.333-26.718 0c-1.04.135-2.863 1.15-4.657 2.314 1.491 5.114 6.173 13.657 7.223 15.66 1.1 2.105-1.339 3.983-1.339 7.867s4.635 10.988 5.122 15.749c.49 4.772-2.93 7.758-5.859 10.873-2.93 3.105-5.969 10.084-5.969 14.414s-4.396 8.539-4.279 10.539c.13 1.996-.603 7.873-1.097 10.084-.017.093-.007.202-.01.295l2.573-.612c.004-.003.832-1.887 2.898-1.887z"/><path id="u" d="M396.006 363.762c-1.103 0-3.719-1.583-5.958-3.086-1.59 1.615-7.184 1.346-9.931 1.346-2.929 0-.366 3.656-2.199 4.989-1.834 1.327-2.563 3.323-1.1 3.983 1.47.676-.363 6.329-.363 8.325s-2.934 6.319-1.834 6.983 2.926 5.325 5.493 5.992 4.389-1.666 5.485-1.666 1.1 2.999 1.1 5.325-1.459 3.327-1.459 3.327-4.033 1.33-5.859 0-3.297-4.99-3.297-6.323-4.389-1.333-6.222-1.333c-1.826 0-3.656-2.996-4.382-4.329-.744-1.327-2.936.333-2.936 1.333s-1.83 1-3.66 1-5.492-2.66-6.955-1.996-2.93-2.324-2.563-3.66-3.663-.327-5.123.337c-1.466.66-2.196-1.67-2.196-1.67s-.846-1.333-2.161-1.916l-1.745 14.9-2.112 1.923-12.25-.384-.843 24.952 9.413 11.697c4.904-.91 15.067-2.186 15.067-.635 0 .468.258 1.08.663 1.731 1.71-.372 3.321-.686 4.209-.587 1.96.221 8.546 2.439 10.495 1.548 1.95-.881 5.373-7.537 8.542-8.425s7.566-3.995 7.566-5.319c0-1.333 0-2.666 4.635-3.778l7.076-.208.486-.007-1.699-5.553 22.851-7.521c-.952-1.775-1.928-3.082-1.456-3.291.846-.384 1.262-5.764 1.262-7.293 0-1.538 5.07-.385 3.378-1.926-1.685-1.532-1.262-10.36-.42-12.286.846-1.919 2.958 0 2.958-1.531 0-1.539-2.538-6.528-3.8-8.069-.913-1.103-8.447-3.842-10.559-4.217-2.111-.382-5.489-2.682-7.597-2.682z"/><path id="v" d="M498.696 225.775c1.463.67 3.846 4.163 5.496 4.493s10.798 3.156 16.654 5.323 9.518 2.332 11.344 2.332c1.837 0 4.583.494 2.93 1.66s-19.58 17.634-21.959 19.961c-2.384 2.336-3.847 1.506-9.152 1.506s-9.328 5.316-10.791 5.156c-.875-.1-3.995.384-6.688.939l-3.941 5.249-3.797 5.377.423 26.875 4.093 5.896c3.226-3.919 11.909-11.468 18.321-17.605 6.959-6.652 10.499-8.203 14.398-9.982 3.902-1.772 13.784-10.536 20.5-18.294 4.226-4.89 8.901-10.325 9.514-13.865.603-3.551 4.509-8.21 7.439-11.649 2.929-3.432 7.812-12.202 7.692-14.859s2.44-8.321 2.806-13.09c.367-4.761-4.029-5.207-5.365-2.55-1.35 2.662-11.831 4.441-18.551 4.547-6.708.105-10.731.673-13.174 2.772-2.446 2.111-8.542-.548-10.738 1.778-2.189 2.336-10.862 4.326-13.668-1-1.181-2.243-2.746-3.493-4.227-4.278-2.365 2.195-5.192 5.441-4.678 6.489.73 1.503 3.66 6.159 5.119 6.819z"/><path id="w" d="M74.498 86.972l-.187-10.225c.268-.987 11.299-6.854 13.185-7.832 1.879-.974 5.376.49 5.376-1.461s4.572-.977 7.266-1.468 4.305-2.201 4.305-4.403 3.765-1.711 6.187-1.961c2.421-.237 2.146-2.198 3.765-2.198 1.611 0 .803-2.198 1.071-4.64s.272-1.958 2.69-1.958 4.851-1.224 4.851-2.688c0-1.471 10.488-.487 12.102-.487s2.151-1.714 1.883-2.942c-.268-1.218-1.611-4.883-3.233-5.13-1.614-.243-.536-3.913-.536-6.848 0-2.929-.535-5.624-2.421-7.822-.399-.468-.864-1.311-1.358-2.314-2.947.058-6.508-1.955-9.578-2.041-4.269-.106-10.855 1.897-14.027-1.327-3.173-3.217-5.37-4.214-7.686-3.217s-6.589 12.09-9.035 15.301c-2.44 3.22-9.268 5.438-12.561 5.438s-3.659 4.547-6.222 6.431-1.586 4.884-4.639 7.095c-3.049 2.218-1.583 8.985 0 11.427s-5.612 10.091-9.758 12.308-5.489 6.428-12.078 7.431c-2.563.388-4.484 1.391-5.975 2.66h30.685c6.367.003 4.911 1.298 5.93 2.871z"/><path id="x" d="M216.866 17.564c1.956 2.663-.483 7.098-2.433 7.982-1.956.888-3.416 4.884-5.369 4.884s0 6.649 3.413 7.982 3.416 3.541 3.416 4.877c0 1.327 4.886 2.66 6.345 4.435 1.467 1.775 3.906 10.206 3.906 13.308 0 .798.293 1.445.734 1.974 1.251-.779 2.788-1.669 3.423-2.749 1.096-1.884 1.946-5.102 1.456-5.992-.487-.881-.36-2.435.736-3.326 1.097-.881 5.489-5.102 6.346-5.431.85-.337 3.652.115 3.532-2.33-.049-.974.082-2.464.247-3.913-1.981-1.154-3.176-2.515-3.176-3.188 0-1.436-2.196-3.881-3.416-2.547s-5.849.224-6.466-2.548c-.606-2.775 3.05-2.663 6.466-5.21 3.416-2.557 3.906-7.437.247-10.097-3.663-2.666-1.104-4.098 1.463-6.537s.243-3.775-1.097-2.666c-1.346 1.109-3.536 1.439-3.902-1.221-.36-2.66-8.299-3.105-11.345-.554-1.068.888-2.707 1.163-4.438 1.154-.73 4.416-1.386 9.937-.088 11.715z"/><path id="y" d="M133.227 32.73c0 2.935-1.082 6.604.536 6.848s2.965 3.913 3.233 5.13c.268 1.227-.268 2.942-1.883 2.942s-12.102-.984-12.102.487c0 1.464-2.429 2.688-4.851 2.688s-2.419-.484-2.69 1.958.539 4.64-1.072 4.64c-1.618 0-1.343 1.958-3.765 2.198-2.422.25-6.187-.237-6.187 1.961 0 2.205-1.615 3.916-4.304 4.403s-7.266-.487-7.266 1.468-3.497.487-5.376 1.461c-1.886.981-12.917 6.848-13.185 7.832-.134.468.053 5.316.187 10.225.286.439.74.888 1.618 1.346 4.065 2.109 77.744 46.413 80.071 48.528 2.323 2.102 5.214 6.851 5.214 6.851s5.225.529 9.289 2.637 4.058 7.912 4.058 7.912l8.126-1.58c2.901-.532 12.765-3.694 12.765-3.694l15.082-11.068 35.398-20.047h.088c-1.093-3.548-2.267-6.4-4.16-6.4-2.129 0-3.649-1.653-6.085-1.653s-5.482-1.109-5.785-3.051c-.303-1.932.91-3.32-.917-5.806s-3.652-3.599-3.652-4.708 3.095-3.265 3.585-3.707-1.226-2.214-1.226-3.438c0-1.218-1.217-3.323 0-4.656 1.226-1.327 1.956-2.66.613-5.098s1.837-4.659.243-7.873c-1.586-3.22-4.022-5.771-3.782-6.877.105-.471.888-.997 1.833-1.573-.437-.529-.734-1.176-.734-1.974 0-3.105-2.439-11.536-3.906-13.308-1.459-1.775-6.345-3.108-6.345-4.435 0-1.336 0-3.547-3.416-4.877s-5.362-7.982-3.413-7.982 3.413-3.996 5.369-4.884 4.393-5.319 2.433-7.982c-1.298-1.779-.645-7.3.084-11.709-3.232-.022-6.807-1.09-7.769-1.375-1.463-.442-5.729.667-8.419.772-2.679.112-9.268 3.993-11.461 2.102-2.2-1.878-24.649 1.445-30.991 1.666s-9.036 6.213-12.808 6.213c-3.782 0-9.768 2.881-12.938 6.098-.892.907-1.956 1.246-3.113 1.259.494 1.003.956 1.843 1.358 2.314 1.882 2.192 2.418 4.884 2.418 7.816z"/><path id="z" d="M238.836 45.509c-.857.333-5.25 4.55-6.346 5.432-1.096.891-1.223 2.445-.737 3.326.49.891-.359 4.108-1.456 5.992-1.103 1.887-5.006 3.22-5.253 4.326-.239 1.109 2.2 3.66 3.783 6.877 1.59 3.214-1.586 5.432-.243 7.873s.613 3.772-.614 5.098c-1.216 1.333 0 3.438 0 4.656 0 1.224 1.71 2.999 1.227 3.438-.486.445-3.585 2.602-3.585 3.707s1.83 2.214 3.652 4.708c1.826 2.483.614 3.874.917 5.806.303 1.942 3.352 3.051 5.785 3.051s3.955 1.653 6.085 1.653c1.896 0 3.07 2.852 4.16 6.4.909.009 8.813.118 12.088 2.105 3.483 2.112 5.225 4.746 5.225 4.746l13.921-6.855 62.991 30.795v-3.974h7.639V71.122c0-5.089-2.548-8.332 0-11.103s-1.022-4.159 1.019-9.251l.751-1.868c-.074-.093-.197-.192-.233-.292-.613-1.544-3.906-1.666-11.097-2.66-7.203-1-4.52-5.438-12.568-5.874-8.056-.452-18.304 5.428-18.424 8.533s3.776 6.547 1.097 9.764c-2.683 3.211-8.532 3.541-12.691.109-4.146-3.435-10.249-4.996-15.241-4.996-5.006 0-8.545-2.881-8.182-5.319s-1.216-3.55-5.362-4.323c-4.149-.779-7.685-3.887-15.004-2.775a14.57 14.57 0 0 1-9.522-1.804c-.165 1.448-.296 2.938-.246 3.913.116 2.448-2.687 1.993-3.536 2.333z"/><path id="AA" d="M14.356 205.042c1.541.141 4.632-1.689 4.632-1.689l12.032-.839c.599-.048 1.361.189 2.084.5l.025-.689s5.493.99 5.859 2.156 7.865 1.993 12.078.67l.91-.298-.053-4.752c-.247-1.109-2.926-3.538-4.392-4.874s-1.223-4.656-1.223-4.656l-1.512-2.051s-1.167-4.217-4.646-5.275c-3.479-1.047-5.803-6.857-5.803-6.857h-2.901s-2.316-2.628-4.632-3.688c-2.323-1.055-6.381.525-6.381.525s-4.646.535-7.544 0c-2.901-.525-2.327 3.163-4.646 3.695l-.42.096c-.264 2.147-.666 4.342-1.893 5.999-2.676 3.669 1.1 8.988 3.049 10.648.405.349.525.846.494 1.42 4.442.41 6.91-.013 10.446-1.551 3.55-1.542 3.864 2.807 7.872 3.092 4.012.275 4.477.564 4.477.564s-2.623 1.535-5.094 1.259c-2.464-.285-5.246-3.092-6.945-1.685s-6.941 2.246-9.413 2.384c-.405.022-1.273.202-2.415.461-.18 1.247-.06 2.471.941 3.499a21.23 21.23 0 0 1 .835.898c4.174-.968 2.884.913 4.181 1.038z"/><path id="AB" d="M359.265 250.609c0-1.387.003-2.778-3.046-5.085-3.056-2.32-5.087-2.775-5.087-4.172 0-1.385-1.019-1.849-3.564-4.621s-6.621-2.772-6.621-2.772l-1.019-2.31-3.564-.468s-2.034-1.384 1.023-2.775c3.049-1.388 0-5.089-.508-6.476-.444-1.205-4.745-5.919-5.849-7.114-.539-.019-1.054-.096-1.434-.292-1.7-.887-5.123.888-6.825 2.432-1.707 1.561-.49 2.449-1.707 3.554-1.223 1.112-5.369 4.432-8.052 7.543-2.682 3.102-9.518 1.109-11.711 2.211-2.196 1.109.973 2.884-.49 3.993s-5.855 2.881-7.318 3.547-7.323.443-9.032 2.445c-1.703 1.987-3.66-2.22-5.369 0s-3.663 2.442-4.629 1.769c-.233-.154-.476-.429-.726-.785-1.583 1.336-3.515 2.83-4.16 4.672-1.097 3.153-4.023 5.983-4.023 7.483 0 1.493 1.097 3.492 1.097 6.149 0 2.669.729 3.996 2.379 5.992s1.28 4.493 1.28 4.493.543 1 1.833 2.493c1.273 1.496 4.932 3.659 5.306 4.826.169.535.796.955 1.42 1.259.159-.237.325-.493.505-.705 2.037-2.31 1.526-5.553 1.526-5.553l4.583-.917 3.554-.926 7.131.926v-5.088s5.084-6.018 8.651-6.018 6.621 4.169 6.621 4.169l15.772 2.778s1.019-4.166 2.546-5.098c1.53-.917 4.579.932 6.613 0 2.041-.917 5.091-2.311 8.655-2.311s5.091 1.853 6.621-.926c1.523-2.772 9.155.926 9.155.926l6.106-.926-2.034-4.624c-.007.003-5.609-2.317-5.609-3.698z"/><path id="AC" d="M229.557 246.467c.984-.228 3.169.439 4.879-.667s5.373 1.551 5.859 3.769 1.953-.891 3.42-3.33c1.463-2.445 6.095-9.757 6.095-11.533s3.91-3.329 3.91-4.438-.247-3.547.976-3.989c1.217-.446 2.193-3.769 1.95-4.881s4.146-7.319 4.875-8.209c.737-.888 4.64-.436 4.886-2.442.24-1.987.97-4.211-.493-4.656s-3.413-1.993-3.413-3.102c0-.631.089-2.452.512-4.047-1.957-.247-2.063-2.026-3.201-3.054-1.213-1.109-1.213-1.997-2.919-1.551s-3.66 4.21-5.86 4.874c-2.192.673-5.365-.891-6.832-1.551s-8.295 0-10.495-.218c-2.192-.218-4.389 2.66-6.095 3.55s-6.589.446-8.048 0c-1.47-.448-4.883-3.105-6.346-3.105-1.47 0-4.396.433-6.832 1.772-2.443 1.333-3.176-2.438-4.636-3.989-1.466-1.551-4.643-.224-6.589-1.779-1.956-1.551-3.18 1.779-4.886 1.551-1.71-.214-6.095-1.108-7.562 0-1.463 1.119-1.223 5.329-1.949 5.993-.733.666-3.663 3.765-3.663 5.322 0 .718-.293 1.218-.783 1.487l.839 5.047c.184 1.509.917 8.989-.913 10.652-1.836 1.66-3.113 4.329-3.113 4.329s-2.929 1.83-3.479 5.486.183 5.989.183 8.818c0 1.994 1.629 3.439 2.531 5.919.036.029.071.035.096.071 1.463 1.781 8.415 2.105 12.321 2.884s7.932 5.761 7.808 7.655c-.123 1.884 2.567 5.544 4.396 6.425 1.827.891 6.342-1.663 8.415-1.663s9.519.112 10.982-1.109c.426-.356.864-.314 1.322-.061 1.759-4.271 2.401-8.043 2.401-8.043s8.475-7.966 9.451-8.187z"/><path id="AD" d="M169.651 233.761c.55-3.656 3.479-5.486 3.479-5.486s1.28-2.669 3.113-4.329c1.83-1.666 1.096-9.146.913-10.652-.102-.855-.515-3.207-.839-5.047-.582.314-1.459.321-2.64-.15-2.2-.888-.24-2.894-2.68-3.557s-3.416 1.772-2.933 3.557c.49 1.765-1.219 1.765-2.196 2.877-.977 1.106-5.366 1.324-6.829 1.324s-3.169 2.442-4.635 2.887c-.328.099-.79.112-1.312.077.339 5.851 1.41 5.403 4.481 7.014 3.476 1.83.183 4.326 1.646 5.656s.917 4.656 1.283 8.822c.219 2.512.512 9.04.702 13.818 2.009-.353 4.107-.455 5.521-.455 2.626 0 4.202-3.157 5.64-1.625-.899-2.477-2.531-3.926-2.531-5.919 0-2.823-.733-5.152-.183-8.812z"/><path id="AE" d="M159.223 227.938c-1.463-1.33 1.833-3.823-1.646-5.656-3.071-1.615-4.143-1.163-4.481-7.015-1.766-.102-4.368-.794-6.254-.971a2.01 2.01 0 0 0-.987.161c.395 2.124.973 4.483 1.657 4.835 1.283.66 2.196 1.997 2.016 4.483-.183 2.503-.92 7.989.177 10.485 1.103 2.496 2.199 6.486 2.199 10.312 0 2.384 1.492 5.941 3.015 8.639.634-.307 1.212-.631 1.678-.987 1.093-.843 2.823-1.339 4.611-1.653l-.702-13.818c-.37-4.159.18-7.482-1.283-8.815z"/><path id="AF" d="M243.235 281.138s19.348.926 21.886.462c2.545-.462 11.704 3.701 11.704 3.701s.434-4.188 2.041-6.698c-.627-.304-1.251-.724-1.421-1.259-.37-1.166-4.033-3.329-5.305-4.826-1.287-1.496-1.833-2.493-1.833-2.493s.366-2.499-1.28-4.492-2.38-3.323-2.38-5.993c0-2.656-1.096-4.656-1.096-6.149 0-1.5 2.926-4.329 4.022-7.482.645-1.843 2.574-3.336 4.16-4.672-.807-1.151-1.699-3.221-2.446-5.422-.977-2.884-3.656-3.769-6.836-6.425-3.166-2.67-1.946-4.221-1.946-5.326s4.146-1.118 7.072-.888c2.926.221 4.636-.445 3.426-1.112-1.233-.666-3.666-5.768-3.426-9.309.243-3.556-1.22-4.656-.977-6.662.247-1.993-2.682-7.097-5.126-7.097-.165 0-.31-.026-.458-.052-.419 1.596-.511 3.413-.511 4.048 0 1.108 1.946 2.656 3.413 3.101s.733 2.67.493 4.656c-.243 2.006-4.149 1.551-4.886 2.442-.73.888-5.122 7.098-4.876 8.21s-.733 4.438-1.949 4.88c-1.227.443-.977 2.884-.977 3.99s-3.909 2.66-3.909 4.438-4.629 9.088-6.096 11.533c-1.466 2.438-2.929 5.55-3.419 3.329-.487-2.214-4.149-4.874-5.859-3.768s-3.896.439-4.879.666c-.977.221-9.452 8.197-9.452 8.197s-.645 3.772-2.401 8.043c1.083.613 2.232 2.596 3.438 4.163 1.709 2.221 4.999.554 6.342 1.221s2.809 5.883 2.312 7.319c-.465 1.391-2.489 4.912-1.554 6.659h11.432l3.557-.933z"/><path id="AG" d="M123.352 257.051c-1.099-1.336-3.659-6.992-3.479-8.319s3.296-5.325 3.116-7.322 3.113-3.323 3.113-4.996c0-1.265-.86-7.543-2.876-11.641-.423.022-.935-.177-1.516-.715-1.47-1.333-7.562-1.118-9.758 1.106-2.2 2.217-6.593-1.993-7.323-3.105s-3.906-3.545-6.345-1.99c-2.447 1.547-3.169 1.102-2.93-.891.247-2-3.663-1.336-4.149.445-.48 1.772-3.656 3.32-4.632 1.997-.977-1.337-3.169-3.106-4.149-1.112-.677 1.387-1.833 1.265-2.792.612-.621 2.47-1.371 5.297-.018 5.982 1.646.83 1.833 2.49 1.47 3.493-.37 1 2.739 3.496 1.463 4.659-1.283 1.157-2.93-1.163-3.843.497s1.83 3.16.733 4.496c-1.096 1.327-2.743 1.496-2.376 4.156s.176 4.486-.917 5.326c-1.1.83.18.83 2.746 2.326s6.769 3.16 6.406 5.656c-.331 2.272-1.428 2.798-2.447 6.995 4.967.093 13.872-3.191 24.346-4.835 6.55-1.016 12.085-.179 16.015.856.413-1.41.695-3.006.141-3.676z"/><path id="AH" d="M149.704 234.26c-1.096-2.496-.359-7.982-.176-10.484.176-2.487-.733-3.823-2.016-4.483-.684-.35-1.262-2.711-1.657-4.836-1.456.599-1.573 2.772-2.186 1.839-.733-1.108-19.767-1.772-20.736-.448-.977 1.333 1.703 6.213 1.463 7.546-.148.798-.561 1.34-1.167 1.381 2.017 4.096 2.877 10.376 2.877 11.642 0 1.67-3.3 3.003-3.113 4.996.18 1.996-2.933 5.992-3.117 7.322-.176 1.327 2.38 6.982 3.48 8.319.553.669.275 2.262-.148 3.675 3.328.875 5.517 1.884 6.183 2.035 1.467.333 11.838-3.993 15.988-5.88 3.317-1.513 7.005-2.458 9.543-3.673-1.523-2.701-3.014-6.255-3.014-8.639-.007-3.823-1.104-7.815-2.204-10.312z"/><path id="AI" d="M42.097 225.116c.18-1.83 1.833-1.167 3.843-.834s4.392-1.166 6.219-1.166 6.592 5.822 6.592 7.486.183 3.159 1.096 4.492a1.87 1.87 0 0 1 .257.526l5.965-.949c.895 0 2.7 3.929 2.337 6.383-.356 2.461 2.697 4.259 3.966 2.625 1.258-1.641 2.877-3.772 3.236-2.301.106.442.783.814 1.639 1.128.455-.971 1.435-1.355 2.179-2.253 1.096-1.336-1.646-2.836-.733-4.495s2.563.66 3.843-.497c1.28-1.163-1.833-3.663-1.463-4.659a2.82 2.82 0 0 0-1.47-3.493c-1.354-.686-.603-3.512.018-5.983a4.61 4.61 0 0 1-1.114-1.051c-.977-1.333-.24-4.223-1.95-4.223s-1.467-2.212 0-2.66c1.466-.436-2.926-1.996-2.926-3.547 0-1.542-2.196-5.323-3.173-5.541s-4.392 3.772-5.859 3.772-4.629-2.666-5.609-.446-3.169-1.115-4.636.673c-1.467 1.766-2.436-2.006-2.436-2.006l.053-1.237-.91.298c-4.209 1.324-11.715.494-12.078-.669s-5.859-2.157-5.859-2.157.18 2.826-1.833 3.49.55 2.826.55 3.489-1.646 1.67-2.926 1.167-4.943 2.496-6.776 3.656c-.204.144-.518.436-.881.801 2.824 2.067 2.577 4.368 5.891 6.579 3.057 2.047 6.956 4.806 9.293 9.216 2.362-1.83 5.531-4.371 5.655-5.614z"/><path id="AJ" d="M78.884 252.062c-2.566-1.497-3.846-1.497-2.746-2.327 1.096-.839 1.28-2.669.917-5.325-.116-.856-.014-1.436.197-1.904-.857-.314-1.533-.686-1.639-1.128-.363-1.471-1.981.66-3.236 2.301-1.269 1.634-4.322-.167-3.966-2.624.367-2.458-1.438-6.384-2.337-6.384-.571 0-3.014.33-5.965.949.391 1.186-.49 2.49-.807 3.8-.363 1.5-4.759 3.663-6.589 4.993-.508.368-1.178 1.323-1.876 2.525 3.444 1.974 7.46 4.271 10.724 6.515 5.975 4.101 15.007 9.542 19.28 10.975.568.202 1.245.279 2.002.285 1.019-4.198 2.115-4.723 2.447-6.995.363-2.497-3.846-4.163-6.406-5.656z"/><path id="AK" d="M59.297 239.419c.367-1.496 1.467-3.002.55-4.326-.913-1.333-1.096-2.832-1.096-4.492s-4.763-7.486-6.592-7.486-4.206 1.5-6.219 1.167-3.666-1-3.843.833c-.127 1.246-3.293 3.787-5.655 5.608.458.862.881 1.765 1.202 2.759 1.95 6.098 3.783 7.325 6.585 9.421 1.269.964 3.748 2.384 6.603 4.031.698-1.202 1.368-2.157 1.875-2.525 1.83-1.33 6.226-3.493 6.589-4.99z"/><path id="AL" d="M37.986 123.448c0-1.714 8.616-3.912 8.616-5.623V97.778s26.902.487 27.709 0c.416-.256.328-5.576.187-10.805-1.019-1.573.441-2.871-5.923-2.871H37.891c-2.351 2.003-3.62 4.707-4.52 6.877-1.463 3.544-10.615 8.758-10.978 13.75s-8.916 12.751-14.521 23.396c-1.544 2.938-2.249 5.22-2.429 7.062h32.542c0 .003 0-10.026 0-11.738z"/><path id="AM" d="M12.879 173.226c2.898.535 7.544 0 7.544 0s4.054-1.58 6.381-.525c2.316 1.06 4.632 3.688 4.632 3.688h2.901s2.323 5.809 5.803 6.857c2.002.612 3.222 2.253 3.906 3.541 2.482-.051 4.407-.794 4.407-2.419 0-2.019 1.114-4.707 4.808-1.676 3.705 3.022 3.705.327 4.442-.679.744-1.007 3.335.336 5.552.336s5.182-1.346 5.182-1.346 30.723.337 32.204-.336 1.111-6.39 1.111-6.39l-2.588-2.349-7.773-66.284h13.9L76.113 88.318c-.881-.458-1.336-.907-1.618-1.346.144 5.23.229 10.549-.187 10.805-.807.487-27.709 0-27.709 0v20.046c0 1.712-8.616 3.91-8.616 5.624v11.741H5.44c-.469 4.833 2.771 6.541 4.625 8.47 2.563 2.656-1.95 7.312 1.833 12.087 3.776 4.762-.857 12.087-2.686 14.753-.994 1.452-1.096 3.954-1.4 6.521.152-.032.328-.074.42-.096 2.323-.532 1.745-4.223 4.646-3.698z"/><path id="AN" d="M174.748 154.243s.004-5.8-4.057-7.912-9.29-2.637-9.29-2.637-2.894-4.746-5.213-6.851c-1.397-1.269-28.556-17.775-50.892-31.198H91.395l7.773 66.283 2.587 2.349s.367 5.717-1.11 6.39-32.204.336-32.204.336-2.961 1.346-5.182 1.346-4.805-1.346-5.553-.336c-.737 1.003-.737 3.701-4.442.679-3.694-3.028-4.809-.34-4.809 1.676 0 1.625-1.925 2.368-4.407 2.419.511.962.74 1.734.74 1.734l1.512 2.051s-.24 3.32 1.223 4.656 4.146 3.765 4.392 4.874c.236 1.118 0 5.989 0 5.989s.97 3.771 2.436 2.006c1.467-1.788 3.659 1.541 4.636-.673.98-2.221 4.146.445 5.609.445s4.883-3.992 5.859-3.771 3.173 3.999 3.173 5.54c0 1.551 4.393 3.115 2.926 3.547-1.467.449-1.706 2.66 0 2.66s.969 2.891 1.95 4.224c.976 1.323 2.929 2.438 3.906.439s3.169-.225 4.149 1.112c.977 1.323 4.153-.225 4.632-1.997.487-1.781 4.396-2.445 4.149-.445-.24 1.993.483 2.442 2.93.891.74-.478 1.541-.548 2.334-.443.867-2.579 1.861-4.963 2.302-5.771.733-1.336-1.706-4.441-.49-4.88 1.223-.449 5.373.442 6.589-2.669 1.223-3.099 2.686-4.656 2.686-4.656s.487-6.643 2.683-5.538c2.203 1.106 4.879 2.875 5.129.218.247-2.669 2.926-1.109 3.656-3.547.733-2.445 2.193-2.214 3.91-1.782 1.699.452 3.169-.218 3.169-1.551 0-1.323 3.903-.66 7.072-2.659s4.879-3.548 6.095-2.442c1.227 1.118 9.282.891 10.499.445s3.662-2.432 6.588-1.996c2.93.445 10.002-1.109 12.928-1.109s4.149-2.442 5.122-3.333c.98-.878 1.717-4.874 2.694-5.537.782-.538.624-14.468.528-19.96l-7.019 1.384z"/><path id="AO" d="M270.557 131.126c0-1.084-.278-5.993-.486-9.643l-6.547 3.224s-1.741-2.634-5.224-4.746c-3.473-2.105-12.177-2.105-12.177-2.105l-35.398 20.047-15.081 11.068s-9.864 3.163-12.766 3.695l-1.1.202c.096 5.492.254 19.422-.528 19.96-.977.663-1.71 4.656-2.694 5.537-.973.891-2.193 3.333-5.122 3.333s-10.001 1.551-12.928 1.109c-2.929-.436-5.369 1.551-6.588 1.996-.621.224-3.008.394-5.366.356-.261 1.698-.465 3.739.06 4.025.92.499 1.28 3.329 2.746 4.329s3.839 2.486 3.839 3.986.184 2.833 1.467 2.833 1.83 2.16 3.296 2.663c1.463.493 3.836-1 4.209-.503.363.503-.183 4.162.547 4.162.437 0 2.104.321 3.345 1.359-.437-1.766.529-4.124 2.94-3.467 2.44.663.483 2.669 2.68 3.557 2.196.881 3.423.214 3.423-1.337 0-1.557 2.929-4.656 3.663-5.322.726-.664.486-4.874 1.949-5.993 1.467-1.108 5.852-.214 7.562 0 1.706.225 2.93-3.105 4.886-1.551 1.943 1.551 5.122.225 6.589 1.779 1.459 1.551 2.193 5.323 4.636 3.989 2.436-1.339 5.362-1.772 6.832-1.772 1.463 0 4.875 2.657 6.346 3.106 1.459.445 6.342.887 8.048 0s3.902-3.772 6.095-3.551c2.2.218 9.032-.445 10.495.218s4.64 2.224 6.832 1.551c2.2-.663 4.15-4.432 5.859-4.874.536-.141.882-.109 1.174-.019.029-.869.046-1.692.046-2.423 0-3.993.977-2.442 1.706-6.425.734-3.996 12.202-14.423 13.182-15.096.973-.66.966-16.407.966-18.624s.493-4.874 1.459-7.989c.977-3.105-1.699-2.874-1.459-5.761s-3.413-5.111-3.413-6.883z"/><path id="AP" d="M340.436 148.649l-62.991-30.795-7.375 3.631.487 9.642c0 1.775 3.655 3.999 3.412 6.877-.24 2.884 2.436 2.656 1.46 5.761-.966 3.118-1.46 5.774-1.46 7.989s.007 17.961-.966 18.624c-.98.673-12.448 11.1-13.181 15.096-.73 3.983-1.706 2.432-1.706 6.425a77.01 77.01 0 0 1-.046 2.423c.627.195.913.813 1.745 1.57 1.227 1.108 1.227 3.105 3.659 3.105 2.443 0 5.373 5.104 5.126 7.098-.24 2.006 1.223 3.105.977 6.662-.24 3.541 2.192 8.642 3.426 9.309 1.213.666-.5 1.333-3.426 1.111s-7.072-.217-7.072.888-1.224 2.657 1.946 5.326c3.18 2.656 5.859 3.538 6.835 6.425s2.19 5.547 3.173 6.21c.966.673 2.923.449 4.629-1.769s3.666 1.987 5.369 0c1.706-2.003 7.565-1.778 9.032-2.445s5.852-2.438 7.319-3.547-1.707-2.884.49-3.993 9.032.888 11.711-2.211c2.683-3.115 6.832-6.434 8.052-7.543s0-1.993 1.706-3.554c1.699-1.541 5.122-3.32 6.825-2.432.381.195.896.272 1.435.292l-.265-.286 1.023-3.246s-4.075-1.849-4.075-4.624 1.018-5.543-1.527-5.543-3.056-2.317-1.019-4.16c2.038-1.862-3.053-5.56.515-5.56 3.561 0 1.015-5.088 3.561-5.543 2.548-.468 3.052-2.32 3.052-4.627 0-2.32 5.599-3.702 7.125-4.169s1.019-7.858 1.019-7.858v-20.559z"/><path id="AQ" d="M429.909 66.63l-5.922-13.206c-.423.602-.748 1.022-.928 1.179-.973.891-5.006-1.327-8.785-.445-3.782.891-6.712-.33-10.371-1.99-3.66-1.666-15.614.436-17.208 2.548-1.579 2.108-5.612 2.108-9.268.779-3.655-1.336-8.418-3.326-15.127-3.884-6.271-.516-11.316-1.336-12.455-2.708l-.751 1.868c-2.041 5.092 1.527 6.476-1.019 9.251s0 6.015 0 11.103v57.783h50.335l2.93-1.779c1.466-.884 3.906 1.33 3.906 1.33h10.731s1.96 2.224 4.396 2.224.973-3.554 4.886-3.554c3.892 0 2.923-5.332 5.362-5.332s1.957.455 4.393-2.653c.074-.093.194-.212.271-.314-.187-.962-.204-1.968-.028-3.013.613-3.544-2.076-3.329-3.776-8.315-1.706-4.993-8.545-12.421-8.781-15.308-.25-2.871-4.033-4.541-3.91-7.652.117-3.102-1.829-3.435-5.616-8.315-3.779-4.877-4.886-13.42-3.779-13.753 1.1-.33 4.269 7.21 5.489 9.652s5.366 9.873 8.299 9.873 4.036-11.203 5.006-10.648c.088.051.148.173.201.33l.324-2.032 1.195-3.019z"/><path id="AR" d="M242.386 325.979c4.082 0 2.556-2.32 1.019-6.031-1.527-3.704 2.559-3.24 5.104-3.24 2.556 0 1.53-4.175 3.572-4.175s2.545 5.098 4.59 4.633 3.571 1.391 6.12.933c2.552-.468 2.552-5.108 2.552-8.812 0-3.717.515-6.489-2.038-7.883-2.556-1.401-4.593-4.643-1.53-6.037 3.064-1.385 3.568-4.176 1.016-6.025-2.553-1.858-8.165 1.849-8.165 0 0-1.015.458-4.637.874-7.732l-12.264-.474-1.523.404c.356 5.434-.342 9.661-.342 9.661l-11.225.468c-.444 0-1.84.173-3.818.452-.416.599-.977 1.192-1.403 1.579-1.096 1 2.563 2.333 3.176 3.772s-4.639 1-4.519 3.108c.127 2.106-1.826 3.772-3.293 4.765-1.463 1 3.906 5.22 4.026 6.653.123 1.445 1.343 2.772 5.986 6.88 4.421 3.912 2.306 4.909 8.158 9.241.772-1.099 1.999-2.14 3.927-2.14z"/><path id="AS" d="M254.125 332.938c1.523.468 2.545 2.781 5.605.468 3.06-2.327 6.635-1.859 6.635.467 0 2.32 1.022 1.849 3.575-.467 2.545-2.327 5.094.461 5.094-4.185 0-4.634 3.063-.462 3.063-5.56s.508-10.203.508-12.517c0-2.32 7.142-4.636 7.142-8.344s6.124-11.129 6.124-15.772c0-4.631 1.537-5.563 3.063-7.883 1.062-1.602 1.837-4.759 1.227-7.774v.058l-7.132-.927-3.553.927-4.583.916s.515 3.246-1.527 5.553c-2.037 2.32-2.545 7.403-2.545 7.403s-9.162-4.163-11.704-3.702c-1.086.199-5.225.148-9.621.016-.416 3.096-.874 6.717-.874 7.733 0 1.849 5.616-1.859 8.165 0 2.552 1.849 2.048 4.64-1.016 6.024-3.063 1.394-1.025 4.637 1.53 6.037 2.553 1.394 2.038 4.166 2.038 7.883 0 3.705 0 8.345-2.552 8.812-2.553.459-4.079-1.394-6.12-.932s-2.546-4.634-4.59-4.634-1.016 4.176-3.571 4.176c-2.549 0-6.632-.468-5.105 3.239 1.537 3.711 3.063 6.031-1.019 6.031-1.928 0-3.155 1.042-3.934 2.144l.867.625c3.42 2.403 5.595 5.149 7.068 7.915 3.402-2.112 6.896-3.983 7.742-3.73z"/><path id="AT" d="M430.621 121.797c-2.436 0-1.466 5.332-5.362 5.332-3.909 0-2.446 3.554-4.886 3.554s-4.396-2.224-4.396-2.224h-10.731s-2.44-2.214-3.906-1.33l-2.93 1.779h-50.334v15.765h-7.64v24.521s.511 7.396-1.019 7.857c-1.526.468-7.124 1.849-7.124 4.169 0 2.31-.508 4.163-3.053 4.627s0 5.544-3.561 5.544c-3.568 0 1.526 3.698-.515 5.56-2.037 1.842-1.526 4.159 1.019 4.159s1.527 2.765 1.527 5.544 4.075 4.624 4.075 4.624l-1.022 3.246s5.598 6.011 6.113 7.399c.507 1.391 3.557 5.092.507 6.476-3.056 1.394-1.022 2.775-1.022 2.775l3.564.468 1.019 2.31s4.072 0 6.62 2.772 3.564 3.24 3.564 4.621c0 1.397 2.031 1.852 5.088 4.172 3.049 2.307 3.045 3.698 3.045 5.086s5.602 3.701 5.602 3.701l1.907 4.319c.956.462 1.724 1.026 2.133 1.965 1.023 2.326 3.575 3.714 3.575 3.714s3.063 1.848 5.098 0c2.041-1.859 4.593.467 4.593.467s2.56-1.855 4.079-.932c1.043.625 5.591 4.028 9.536 7.309.582-.202 4.414-1.474 6.099-1.628 1.829-.166 4.392 2.66 5.122 1.663.737-.999 4.58-2.493 6.043-1.826s4.935.83 5.122-.33c.12-.795 1.685-1.59 2.792-2.439.515-.391.941-.794 1.054-1.224.363-1.33 4.759-3.662 6.582-3.999 1.837-.327 4.033-.493 4.949.503.427.468 1.213.817 2.056 1.135.624-4.259 1.657-6.589.134-6.589-2.038 0-6.124-1.852-7.65-5.566-1.534-3.711-6.127-6.024-7.139-8.347-1.03-2.32-6.638-1.843-7.657-3.702s1.537-1.861 1.537-4.178 6.12-.926 6.624-1.394c.511-.468 1.022-5.553 1.022-8.348 0-2.775 4.083-5.559 2.553-6.953s1.533-1.849 3.574-3.243c2.045-1.404.508-5.566 2.553-7.422 2.037-1.852 3.567-5.559 5.101-5.559s3.564-1.859 3.564-3.718c0-1.852 3.575-5.562 3.071-8.809-.519-3.246-2.045-7.418.504-10.206 2.552-2.775 3.574-5.095 3.067-7.415-.515-2.317 3.056-2.781 4.593-4.169 1.079-.99 4.971-2.454 7.876-6.681-1.858-2.07-3.85-3.772-5.126-4.3-2.929-1.218-4.883-5.874-4.883-11.754s-1.586-10.54-1.833-12.417c-.239-1.885-3.412-5.887-7.191-7.771-2.676-1.33-4.171-3.33-4.615-5.637-.078.1-.201.218-.272.314-2.432 3.115-1.949 2.66-4.389 2.66z"/><path id="AU" d="M451.054 167.39c-1.537 1.388-5.108 1.852-4.593 4.169.507 2.323-.515 4.64-3.067 7.415-2.535 2.772-1.037 6.909-.515 10.145 3.074-.202 6.268-.24 6.906.33 1.283 1.164 1.798 0 2.57-2.332.772-2.34 2.309-2.106 3.86-.933 1.541 1.163 2.567 3.035 5.144 1.862 2.57-1.163 2.313-.465 3.599 0 1.287.474 6.427-.228 8.225 0 1.805.234 17.5 15.436 17.5 15.436s-.039.051-.106.16c1.981.202 3.338.471 3.945-.26.25-.314 1.142-.839 2.235-1.416-2.002-1.711-4.914-4.518-8.789-8.963-4.636-5.326-10.125-8.206-13.058-8.206-2.926 0-3.416-4.544-5.238-4.765-1.837-.218-5.979-6.771-6.106-10.982-.067-2.371-2.235-5.672-4.629-8.344-2.912 4.229-6.807 5.694-7.883 6.684z"/><path id="AV" d="M420.955 242.506c1.012 2.326 5.609 4.637 7.139 8.347s5.612 5.566 7.65 5.566c1.523 0 .49 2.33-.134 6.589.966.356 2.013.673 2.697 1.028 1.283.664 6.592 0 8.422 1.494 1.83 1.503 7.685 4.995 9.515 4.995 1.837 0 8.418.824 9.515 1.494 1.103.669 2.563-2.493 5.492-3.996 2.93-1.494 6.593-2.49 7.143-1.327.539 1.167 2.562 2.166 4.022 1.506.599-.279 2.26-.682 4.114-1.06 2.697-.555 5.813-1.039 6.688-.939 1.459.16 5.482-5.156 10.791-5.156s6.768.83 9.151-1.506c2.384-2.327 20.313-18.791 21.96-19.961 1.653-1.163-1.097-1.66-2.93-1.66-1.826 0-5.492-.17-11.344-2.333s-15.004-4.992-16.654-5.322-4.033-3.823-5.496-4.493c-1.46-.66-4.389-5.316-5.122-6.822-.247-.513.335-1.58 1.258-2.791-1.798-1.529-2.7-1.948-3.895-1.224-1.541.932-4.114 1.176-4.629.231-.515-.93-1.544-4.445.261-6.31 1.801-1.871 4.114-5.377 4.114-5.377s-15.695-15.202-17.5-15.436c-1.798-.227-6.938.474-8.225 0-1.286-.464-1.029-1.163-3.599 0-2.577 1.173-3.603-.698-5.143-1.862-1.548-1.172-3.089-1.406-3.861.933-.775 2.333-1.286 3.496-2.57 2.333-.638-.571-3.832-.529-6.906-.33 0 .022.007.041.014.061.504 3.246-3.07 6.956-3.07 8.809s-2.027 3.717-3.564 3.717-3.064 3.707-5.102 5.559c-2.044 1.856-.507 6.022-2.552 7.422-2.041 1.394-5.101 1.852-3.575 3.243 1.534 1.394-2.552 4.178-2.552 6.953 0 2.795-.515 7.883-1.022 8.348s-6.624-.926-6.624 1.394-2.56 2.317-1.537 4.178 6.631 1.388 7.66 3.705z"/><path id="AW" d="M478.788 277.764l3.797-5.377 3.941-5.249c-1.854.378-3.514.782-4.114 1.061-1.459.66-3.479-.336-4.022-1.506-.55-1.163-4.213-.167-7.142 1.327-2.93 1.502-4.39 4.665-5.493 3.995s-7.682-1.493-9.515-1.493-7.689-3.493-9.515-4.996c-1.829-1.493-7.135-.829-8.422-1.493-1.276-.673-3.839-1.166-4.752-2.166-.92-1-3.116-.83-4.95-.503-1.826.336-6.222 2.669-6.581 3.999-.113.429-.54.833-1.054 1.224l3.758 3.108.842 5.378 3.374 2.688s0 3.07-.416 6.143c-.423 3.07-3.381 6.909-5.5 8.831-.624.571-1.508 2.394-2.446 4.66 3.233.733 5.644 1.852 5.461 2.736-.364 1.83-5.853 1-5.853 4.826 0 .256-.024.503-.042.756l31.182 15.039-.42 4.611 13.848 8.944c3.042-7.034 7.033-14.859 8.076-16.324 1.83-2.554 3.663-2.108 5.246-3.887 1.587-1.772 2.077.888 4.516-2.66.194-.272.43-.592.709-.91l-4.093-5.896-.42-26.866z"/><path id="AX" d="M425.57 275.076l-.843-5.377-3.758-3.108c-1.107.849-2.672 1.644-2.792 2.438-.187 1.157-3.656.997-5.122.33s-5.306.83-6.043 1.827c-.729 1-3.296-1.827-5.122-1.663-1.83.17-6.222 1.663-6.222 1.663l-.73 6.492c0 1.824 2.743 2.163 2.743 3.66s-2.196 2.823-2.383 3.823c-.18.999-1.643 1.663-3.476 2.166-1.826.496-1.647 3.163-3.106 4.153-1.47 1.003-1.104 3.499-2.02 5.325s-1.46 4.33-1.46 6.483c0 1.74-.246 4.195-1.374 5.451 2.337.221 2.943-.112 4.117-.654 1.689-.756 8.447-2.297 8.447-2.297l6.885-.507c1.526-3.922 3.783-7.479 6.261-8.142 3.211-.856 7.579-.516 11.009.256.942-2.265 1.827-4.089 2.447-4.659 2.119-1.923 5.073-5.762 5.5-8.832.416-3.073.416-6.143.416-6.143l-3.374-2.685z"/><path id="AY" d="M547.504 390.41c-1.093-3.637-1.953 1.337-2.926 2.215-.973.887-1.463 3.547-1.227 5.329.251 1.775-2.922 3.544-4.872 3.319-1.956-.214-5.129.891-4.153 3.33.97 2.445-1.463 1.999-.243 3.989 1.216 2-2.683 4.445-6.102 4.66-3.416.221-7.809 5.774-11.461 5.322-3.666-.439-7.326 2.221-10.499 1.779-3.179-.449-.98 5.985-3.419 9.981-2.443 3.99-1.22 8.646.973 13.526s3.906 8.873-1.953 15.302c-5.852 6.44-5.369 13.532-3.169 17.967 2.196 4.441 2.196 11.094 5.365 14.199 3.176 3.111 11.958 5.761 14.641 3.329 2.683-2.442 5.51.327 8.535-2.887 2.929-3.105 7.819-20.188 11.958-31.49 4.152-11.312 9.522-26.177 9.035-29.286s2.926-5.095 1.467-8.427c-1.467-3.33.486-7.319 2.192-4.659s4.153 2.659 4.883-.882c.73-3.55-2.926-9.1-3.169-14.202s-5.123-9.972-5.856-12.414z"/><path id="AZ" d="M384.87 351.533c-4.026-1.996-5.676-27.116-3.667-27.776.265-.083.519.183.776.702l-.405-5.694s-.233-.036-.54-.154c-.648-.231-1.657-.814-1.657-2.173 0-1.99 1.83-2.163 1.83-2.163s-.36-4.159 1.653-4.826c.406-.128.73-.394 1.005-.708 1.125-1.259 1.375-3.711 1.375-5.451 0-2.156.543-4.653 1.459-6.482s.55-4.326 2.02-5.326c1.46-.99 1.28-3.656 3.106-4.153 1.837-.503 3.3-1.166 3.476-2.166.187-1.003 2.383-2.333 2.383-3.823 0-1.497-2.742-1.833-2.742-3.66 0-1.836.729-6.492.729-6.492l.12-.035c-3.945-3.281-8.492-6.684-9.536-7.309-1.523-.923-4.079.932-4.079.932s-2.552-2.326-4.593-.468c-2.034 1.849-5.098 0-5.098 0s-2.552-1.39-3.574-3.714c-.409-.939-1.178-1.506-2.133-1.964l.127.308-6.106.926s-7.633-3.698-9.156-.926c-1.53 2.778-3.056.926-6.62.926s-6.614 1.394-8.655 2.31c-2.034.933-5.083-.916-6.613 0-1.527.933-2.546 5.098-2.546 5.098l-15.772-2.778s-3.057-4.169-6.621-4.169-8.651 6.018-8.651 6.018v5.031c.614 3.012-.166 6.172-1.227 7.774-1.53 2.32-3.063 3.253-3.063 7.883 0 4.643-6.124 12.062-6.124 15.772s-7.142 6.025-7.142 8.345-.508 7.415-.508 12.516-3.063.926-3.063 5.56c0 4.643-2.553 1.858-5.094 4.185-2.553 2.317-3.575 2.785-3.575.468 0-2.327-3.575-2.791-6.635-.468-3.06 2.317-4.082 0-5.605-.468-.846-.253-4.34 1.618-7.735 3.724 1.53 2.871 2.316 5.742 2.933 8.277a11.72 11.72 0 0 0 .219.756c1.798-1.16 3.617-2.179 4.657-2.314 2.566-.333 26.719 0 26.719 0s2.196 3.326 1.463 6.329c-.73 2.987 1.47 1.66 3.296 5.656 1.836 3.986 3.299 5.656 6.962 4.656 3.653-.997 8.049-1.67 9.515-1.333 1.46.336 1.1-5.656 3.293-6.653 2.193-1.003 6.589 0 6.589 0s.366 1.66 4.026 1.66 5.492-1.329 5.492 1.003.363 4.993 1.463 5.986c1.097 1.003-2.926 9.312-1.103 10.649 1.836 1.333 4.396 4.319 4.033 5.989-.367 1.663-1.47 5.656 0 5.989s1.829-1.997 4.389-1.997c2.566 0 4.759.33 7.318-.669.846-.324 1.59-.202 2.235.08 1.315.583 2.162 1.916 2.162 1.916s.729 2.333 2.196 1.67c1.459-.664 5.489-1.67 5.122-.337s1.1 4.329 2.563 3.66c1.463-.664 5.122 1.996 6.956 1.996s3.659 0 3.659-1 2.193-2.66 2.936-1.333c.727 1.333 2.56 4.329 4.382 4.329 1.834 0 6.223 0 6.223 1.333s1.466 4.996 3.296 6.323 5.859 0 5.859 0 1.459-1.003 1.459-3.326c0-2.33 0-5.326-1.099-5.326s-2.923 2.333-5.486 1.666-4.392-5.323-5.492-5.992 1.833-4.986 1.833-6.983 1.833-7.649.363-8.325c-1.463-.66-.733-2.656 1.1-3.983 1.837-1.333-.73-4.989 2.2-4.989 2.746 0 8.341.269 9.931-1.346.109-.106.239-.199.313-.327.205-.365.378-.759.529-1.154-1.889-2.807-3.761-6.54-6.028-7.668z"/><path id="Aa" d="M381.979 324.459c.642 1.323 1.294 4.364 2.048 7.796l3.529-1.893c2.112-.766 6.755-8.826 6.755-8.826l-2.112-1.15s.226-1.685-.335-3.945c-1.89.205-3.888.106-3.888.106s.423 3.064-4.224 2.298c-.74-.119-1.688-.193-2.721-.231a2.8 2.8 0 0 0 .539.154l.409 5.691z"/><path id="Ab" d="M476.617 411.26c-.85-1.999-2.563-10.988-2.073-14.641.49-3.659-.734-13.304-.734-17.961 0-.108-.021-.192-.024-.282-4.037 1.664-8.376 3.577-8.754 4.269-.733 1.333-3.902-.221-5.862 1.333-1.953 1.551-3.166.224-4.872-.215-1.703-.448-2.447 1.551-2.69 2.878s-3.656.66-4.883.439c-1.22-.215-5.122.891-7.079.891s-.483-1.551-2.679-2.215-3.659.885-4.886.885c-.737 0-3.014-.241-4.678-.442-.032 1.028-.159 1.935-.444 2.605-1.583 3.759 3.296 12.263 3.539 15.862 1.809 1.419 3.896 3.15 5.006 4.377 2.189 2.442 0 2.217.236 7.543.247 5.316-2.432 3.105-4.632 4.874-2.193 1.772-.247 5.768-.726 6.88-.494 1.109-7.083-7.771-7.569-9.101s2.446-6.655 1.71-9.751c-.734-3.105-5.123-1.115-6.586-.894s-4.886-3.544-5.619-3.544-22.929 7.537-22.929 7.537l1.699 5.553-.486.007 1.216 2.426s7.322.336 10.618 2.332c3.289 2 8.419 2.327 9.515 3.003 1.1.66 0 7.982.367 11.642s-4.389 4.656-2.196 6.652 1.096 5.326 2.57 5.653c1.459.333-2.57 4.656-4.404 5.659-1.822 1 0 4.662-2.192 7.315-1.403 1.708-5.507 5.047-8.373 7.576.141.073.264.147.324.24.734 1.167 2.926 12.811 5.119 13.978 2.203 1.163.92 12.641.737 13.641s.92 8.649.92 8.649 3.264-.465 6.141-.426c.201-1.516.324-2.833.384-3.733.24-3.541-2.443-.667-3.299-2.878-.853-2.217 5.979-6.322 12.934-8.652s9.635-3.659 10.368-5.883c.73-2.208-.12-8.418.857-10.873.969-2.432-.614-3.874-1.463-9.418-.857-5.547-3.06-6.434-4.03-9.539-.98-3.106-.733-5.538 1.34-5.66 2.073-.105 2.073-.996 3.783-3.989 1.709-2.999 3.663-1.772 6.959-3.996 3.292-2.214 3.409-4.989 8.658-8.646 5.239-3.659 10.978-3.544 16.1-6.322 5.137-2.778 13.915-13.644 13.062-15.638z"/><path id="Ac" d="M467.955 371.558c-.244-4.547-3.173-4.547-3.05-7.659.127-3.095.367-5.874-.853-6.21s-.49-2.996 1.46-5.656c1.96-2.656-3.529-2.999-4.389-6.322-.36-1.42 1.385-6.191 3.634-11.402l-13.847-8.943.419-4.611-31.182-15.039c-.208 3.458-1.762 6.13-3.987 7.063-2.383.99 3.3 4.153.55 4.656-2.739.49-8.965-2.333-13.361-.676-2.947 1.128-2.337-5.589-.042-11.479l-6.885.507-3.889.942 1.354 3.275s1.692 3.069 1.269 4.995c-.194.872-1.709 1.263-3.296 1.433.561 2.259.335 3.944.335 3.944l2.112 1.151s-4.643 8.059-6.755 8.825c-.564.205-1.896.939-3.529 1.894 1.245 5.671 2.768 12.404 5.052 14.295 4.209 3.492 3.48 7.485 4.386 9.815.92 2.326 4.583 4.992 2.02 5.982-1.654.648-3.127-.961-4.597-3.149-.152.394-.328.788-.529 1.153-.074.128-.205.218-.314.327 2.242 1.503 4.854 3.086 5.958 3.086 2.112 0 5.489 2.301 7.601 2.688 2.111.375 9.645 3.118 10.558 4.217.162.202.345.455.532.744 1.798-.08 4.164-.148 5.56.016a1.81 1.81 0 0 1 1.209-.436c2.788 0 6.085 9.613 5.94 15.202 1.664.202 3.941.442 4.678.442 1.227 0 2.69-1.548 4.886-.884s.727 2.214 2.68 2.214 5.859-1.109 7.079-.891c1.226.221 4.639.891 4.882-.439s.984-3.326 2.69-2.877c1.703.442 2.919 1.768 4.872.214 1.96-1.554 5.129 0 5.863-1.333.377-.692 4.72-2.605 8.753-4.268-.226-4.262-5.588-2.359-5.827-6.806z"/><path id="Ad" d="M167.963 208.303c-1.241-1.038-2.912-1.359-3.345-1.359-.734 0-.184-3.659-.547-4.162-.37-.494-2.746.999-4.209.503-1.47-.503-2.013-2.663-3.296-2.663s-1.467-1.333-1.467-2.833-2.372-2.993-3.839-3.986c-1.466-1-1.826-3.826-2.746-4.329-.525-.286-.321-2.327-.06-4.025-2.274-.032-4.53-.253-5.133-.801-1.216-1.109-2.926.445-6.095 2.442s-7.072 1.336-7.072 2.659c0 1.333-1.47 2.003-3.169 1.551-1.717-.436-3.177-.663-3.91 1.782s-3.409.878-3.656 3.547c-.25 2.657-2.926.885-5.129-.218-2.196-1.108-2.683 5.538-2.683 5.538s-1.463 1.557-2.686 4.656c-1.216 3.111-5.366 2.22-6.589 2.669-1.22.442 1.223 3.544.49 4.88-.441.808-1.435 3.192-2.302 5.771 1.805.27 3.501 1.664 4.015 2.433.734 1.112 5.126 5.322 7.322 3.105s8.288-2.439 9.759-1.106c1.459 1.333 2.443.667 2.682-.666s-2.436-6.214-1.463-7.547c.97-1.323 20.003-.66 20.736.449s.73-2.218 3.173-2c2.443.228 6.103 1.333 7.566.891 1.466-.449 3.169-2.887 4.635-2.887s5.852-.218 6.829-1.324c.977-1.115 2.686-1.115 2.196-2.877 0-.032 0-.058-.007-.093z"/><path id="Ae" d="M436.503 409.41c-1.107-1.227-3.198-2.957-5.006-4.377.042.548-.028.997-.251 1.269-2.139 2.829-8.228-5.983-8.957-11.478-.741-5.483 3.472-8.152.913-13.302-2.137-4.32-3.473-8.463-1.946-9.719-1.396-.163-3.762-.096-5.56-.016 1.333 2.003 3.268 5.983 3.268 7.322 0 1.532-2.112-.388-2.958 1.532-.842 1.926-1.262 10.754.42 12.286 1.689 1.538-3.377.384-3.377 1.925 0 1.532-.416 6.909-1.262 7.294-.473.208.507 1.519 1.455 3.291.018 0 .075-.016.075-.016.733 0 4.156 3.771 5.619 3.544 1.463-.218 5.852-2.208 6.585.894.737 3.095-2.196 8.421-1.71 9.751s7.079 10.209 7.569 9.101c.48-1.116-1.466-5.112.727-6.88 2.199-1.769 4.882.445 4.632-4.874-.236-5.326 1.953-5.105-.236-7.547z"/></defs></svg>