<svg width="150" height="109" viewBox="0 0 150 109" fill="none" xmlns="http://www.w3.org/2000/svg">
<g clip-path="url(#clip0)">
<g filter="url(#filter0_d)">
<path d="M39.6303 31.0485C1.64381 91.233 87.7904 75.9961 95.1923 43.2377" stroke="#FF725E" stroke-width="2"/>
</g>
<path d="M88.5671 29.7139L88.2775 30.0465L90.749 30.2903L92.2351 28.5834C92.4671 28.3174 92.8917 27.9184 93.5096 27.4751C94.1275 27.0317 94.5325 26.8987 94.6871 27.076C95.1117 27.5637 94.6871 28.5169 93.4126 29.9578L91.9455 31.6425L92.1578 34.4799L92.4475 34.1696C92.6794 33.8814 92.9303 33.8814 93.123 34.1031C93.355 34.3691 93.2586 34.7459 92.7953 35.2779L92.3315 35.8322L92.5634 37.7386L92.8917 37.3396C93.104 37.0735 93.3359 37.0735 93.5482 37.2952C93.7796 37.5612 93.7409 37.8937 93.4323 38.2484L92.7371 39.0464C93.0076 41.1745 93.0463 42.3715 92.834 42.6154C92.7371 42.7041 92.6021 42.7927 92.4088 42.8371C92.2351 42.8592 92.0805 42.8371 91.9842 42.7484C91.9069 42.6375 91.7915 42.2385 91.6755 41.5514C91.5405 40.842 91.2123 39.6449 90.633 37.9602C90.0728 36.2533 89.6678 35.3001 89.4746 35.0563C89.3973 34.9676 89.2813 34.9676 89.1463 35.0563C89.0113 35.1228 88.5284 35.5883 87.7565 36.4528C86.984 37.3396 86.2698 38.0489 85.5942 38.6031C85.5751 38.7361 85.6328 39.1794 85.7292 39.911C85.8261 40.6424 85.8642 41.1302 85.8451 41.3075C85.8065 41.4849 85.6519 41.7287 85.4009 42.0168C85.2659 42.172 85.1696 42.2607 85.0726 42.2829C84.8217 41.9947 84.4357 41.0637 83.9148 39.5341C82.4667 38.8026 81.6751 38.3371 81.5205 38.1598C81.5205 38.071 81.5978 37.9381 81.7328 37.7829C81.9838 37.4947 82.1967 37.3174 82.3703 37.2952C82.5244 37.2508 82.93 37.3174 83.5669 37.4504C84.2044 37.5612 84.5903 37.6055 84.7253 37.6055C85.1886 36.8075 86.0575 35.6326 87.4086 34.0809C87.7951 33.5933 87.9111 33.2829 87.7755 33.1277C87.5828 32.8839 86.733 32.4406 85.2659 31.7977C83.7792 31.1548 82.7563 30.7336 82.1384 30.6006C81.5205 30.4455 81.1732 30.3346 81.0959 30.2238C80.9996 30.1351 80.98 29.9578 81.0186 29.7361C81.0382 29.5144 81.1155 29.3592 81.2119 29.2485C81.4051 29.0268 82.4476 29.049 84.3198 29.3592L84.9959 28.5612C85.3046 28.2287 85.5942 28.1844 85.8261 28.4504C86.0384 28.6721 86.0188 28.9381 85.8065 29.1819L85.4592 29.5587L87.1196 29.8248L87.5828 29.3149C88.0461 28.7829 88.3744 28.6721 88.6057 28.9381C88.818 29.1819 88.799 29.4258 88.5671 29.7139Z" fill="#FF725E"/>
<path d="M11.1734 15.4726L8.26622 17.2222C7.81553 17.4802 7.51351 17.6092 7.36028 17.6092C7.08082 17.6092 6.87803 17.5112 6.7518 17.3151C6.61663 17.1086 6.54901 16.7938 6.54901 16.3706C6.54901 15.8855 6.63913 15.3281 6.81942 14.6985C6.9997 14.0585 7.20705 13.5888 7.4414 13.2895C7.6848 12.9798 8.25272 12.5567 9.14517 12.0199C10.0466 11.4729 11.1283 10.9258 12.3904 10.3787C13.6524 9.83165 14.9685 9.37748 16.3386 9.0162C17.7088 8.65498 18.9619 8.4743 20.0976 8.4743C20.8909 8.4743 21.4769 8.61884 21.8555 8.90786C22.2341 9.19687 22.4234 9.96067 22.4234 11.1993C22.4234 11.8703 22.2206 12.6186 21.8149 13.4444C21.4183 14.2598 20.936 15.0546 20.3681 15.8287C19.8092 16.6029 18.768 17.9757 17.2446 19.9472C18.0559 19.8027 18.6508 19.7098 19.0295 19.6685C19.4081 19.6272 20.1157 19.5395 21.1524 19.4053C22.3513 17.4235 23.3203 15.8442 24.0595 14.6675C24.7987 13.4804 25.4252 12.4999 25.939 11.7257C26.4529 10.9413 26.7593 10.4923 26.8585 10.3787C27.0388 10.1413 27.1875 10.0536 27.3047 10.1155C27.4309 10.1671 27.494 10.3787 27.494 10.7503C27.494 11.1735 27.4534 11.5193 27.3723 11.7877C27.3002 12.056 27.183 12.3244 27.0207 12.5928C26.8585 12.8508 26.7728 12.9902 26.7638 13.0108C26.5295 13.4547 26.1914 14.0379 25.7497 14.7604C25.308 15.4726 24.8753 16.1797 24.4516 16.8816C24.0279 17.5835 23.5457 18.4144 23.0048 19.3743C24.0144 19.4156 25.0105 19.5653 25.9931 19.8233L23.5592 23.6012C22.8921 23.4979 22.0042 23.4463 20.8955 23.4463C20.625 24.0657 20.4132 24.5508 20.2599 24.9017C20.1157 25.2527 19.9895 25.5882 19.8813 25.9082C19.7822 26.2178 19.7326 26.5068 19.7326 26.7751C19.7326 26.9403 19.7731 27.1623 19.8543 27.441C19.9444 27.7093 19.9895 27.8642 19.9895 27.9054C19.9895 28.1119 19.8543 28.3338 19.5838 28.5712C19.3224 28.7983 19.0114 28.9995 18.6508 29.1751C18.2993 29.3505 18.0244 29.4382 17.826 29.4382C17.4925 29.4382 17.3257 29.1492 17.3257 28.5712C17.3257 27.3738 17.8621 25.7069 18.9348 23.5702C17.5106 23.7044 15.8744 23.947 14.0265 24.2979C13.4946 25.103 13.0123 25.8668 12.5796 26.5894C12.147 27.312 11.7909 27.9209 11.5114 28.4164C11.241 28.9118 11.0382 29.2421 10.9029 29.4073C10.7768 29.5724 10.637 29.655 10.4838 29.655C10.2224 29.655 10.0015 29.526 9.8212 29.2679C9.74009 29.1647 9.68603 29.0615 9.65897 28.9582C9.64092 28.8551 9.63192 28.7415 9.63192 28.6176C9.63192 28.4938 9.63192 28.3854 9.63192 28.2925C9.63192 28.1686 9.69053 27.988 9.8077 27.7506C9.92488 27.5132 10.2043 27.0435 10.646 26.3417C11.0878 25.6295 11.4122 25.0927 11.6196 24.7314C11.3852 24.7624 11.0832 24.7779 10.7136 24.7779C10.2449 24.7779 9.86182 24.6798 9.5643 24.4837C9.27584 24.2876 9.13161 24.045 9.13161 23.756C9.13161 23.4257 9.20822 23.0748 9.36151 22.7032C9.51474 22.3213 9.71303 22.0064 9.95643 21.7587C10.1998 21.5007 10.4432 21.3716 10.6866 21.3716C10.8489 21.3716 11.0427 21.4284 11.268 21.542L14.7566 20.551C16.7037 18.1357 18.1551 16.2261 19.1106 14.8223C20.0661 13.4185 20.5439 12.5154 20.5439 12.1128C20.5439 11.8857 20.4898 11.6999 20.3816 11.5554C20.2734 11.4006 20.1202 11.2819 19.9219 11.1993C19.7326 11.1167 19.5117 11.0754 19.2593 11.0754C18.9619 11.0754 18.4886 11.1683 17.8396 11.3542C17.1995 11.54 16.4333 11.8135 15.5409 12.1748C14.6484 12.536 13.5351 13.0366 12.201 13.6766C11.2095 14.141 10.7136 14.4353 10.7136 14.5591C10.7136 14.7036 10.7813 14.7965 10.9165 14.8378C11.0517 14.8791 11.223 14.9101 11.4303 14.9307C11.6466 14.9513 11.7548 14.9875 11.7548 15.0391C11.7548 15.0804 11.7007 15.1372 11.5926 15.2094C11.4934 15.2817 11.3537 15.3694 11.1734 15.4726ZM34.8904 24.1585V25.1959C34.2954 25.8152 33.8176 26.2281 33.4571 26.4345C33.0965 26.641 32.5782 26.7235 31.9021 26.6823C30.7302 28.2719 29.6981 29.0667 28.8056 29.0667C28.3008 29.0667 27.8411 28.8757 27.4264 28.4938C27.0117 28.1119 26.6782 27.5906 26.4258 26.93C26.1824 26.2694 26.0607 25.5314 26.0607 24.716C26.0607 24.0554 26.25 23.3225 26.6286 22.5173C27.0162 21.7123 27.512 20.9639 28.116 20.2723C28.729 19.5704 29.3825 19.0079 30.0766 18.5847C30.7707 18.1512 31.4153 17.9344 32.0102 17.9344C32.4339 17.9344 32.7675 18.0118 33.0109 18.1667C33.2542 18.3112 33.3759 18.5176 33.3759 18.786C33.3759 18.9924 33.2723 19.2298 33.0649 19.4982C33.4074 19.5807 33.6418 19.7201 33.768 19.9162C33.8942 20.102 33.9574 20.4478 33.9574 20.9536C33.9574 21.4491 33.8537 22.0735 33.6463 22.827C33.4481 23.5805 33.1731 24.2876 32.8215 24.9482L33.0649 25.2269H33.2678C33.421 25.2269 33.5697 25.1856 33.714 25.103C33.8672 25.0101 34.0024 24.9173 34.1196 24.8243C34.2368 24.7211 34.4937 24.4992 34.8904 24.1585ZM32.1049 20.0865C31.3567 20.6026 30.7167 21.0723 30.1848 21.4955C29.6529 21.9084 29.2022 22.3316 28.8327 22.7651C28.463 23.1883 28.2151 23.6167 28.089 24.0501C27.8636 25.2062 27.7509 25.8307 27.7509 25.9236C27.7509 26.6048 28.1656 26.9455 28.9949 26.9455C29.3825 26.9455 30.0316 26.5635 30.942 25.7998C30.7888 25.3146 30.7122 24.8501 30.7122 24.4063C30.7122 23.756 30.8293 23.0954 31.0637 22.4245C31.2981 21.7432 31.6452 20.9639 32.1049 20.0865ZM41.3401 24.0192V25.165C39.4561 28.0242 37.9237 29.4537 36.7428 29.4537C36.1028 29.4537 35.598 29.0563 35.2284 28.2615C34.8678 27.4564 34.6875 26.4036 34.6875 25.103C34.6875 24.0501 34.9039 22.8012 35.3366 21.3561C35.7692 19.9007 36.3462 18.4298 37.0673 16.9435C37.7975 15.4468 38.5502 14.1463 39.3255 13.0418C40.1097 11.927 40.8353 11.1477 41.5024 10.7039C41.7728 10.5181 41.9847 10.4251 42.138 10.4251C42.3272 10.4251 42.4534 10.5232 42.5165 10.7194C42.5796 10.9051 42.6112 11.2303 42.6112 11.6948C42.6112 13.1295 42.1019 14.8946 41.0832 16.99C40.0646 19.075 38.6449 21.2065 36.8239 23.3844C36.7338 23.9211 36.6887 24.334 36.6887 24.623C36.6887 25.2836 36.8104 25.8204 37.0538 26.2332C37.3062 26.6461 37.6532 26.8526 38.0949 26.8526C38.3203 26.8526 38.5637 26.7545 38.8251 26.5584C39.0866 26.352 39.3615 26.0991 39.65 25.7998C39.9384 25.5004 40.5018 24.9069 41.3401 24.0192ZM37.2972 21.2323C37.7659 20.7059 38.2167 20.1072 38.6494 19.4363C39.0911 18.7653 39.5057 18.0479 39.8933 17.2841C40.281 16.5203 40.583 15.8339 40.7993 15.2249C41.0247 14.6159 41.1373 14.1566 41.1373 13.8469C41.1373 13.6095 41.0652 13.4908 40.921 13.4908C40.8669 13.4908 40.7632 13.5476 40.61 13.6611C40.0601 14.1772 39.4426 15.1888 38.7575 16.6957C38.0724 18.1925 37.5856 19.7046 37.2972 21.2323ZM46.7758 17.2686C46.5505 17.2686 46.3342 17.1706 46.1268 16.9745C45.9285 16.7783 45.8293 16.5306 45.8293 16.2313C45.8293 15.7771 46.0186 15.2713 46.3973 14.7139C46.7758 14.1566 47.168 13.8779 47.5736 13.8779C47.8441 13.8779 48.0694 13.9759 48.2497 14.172C48.43 14.3579 48.5202 14.6314 48.5202 14.9926C48.5202 15.4365 48.3353 15.9268 47.9657 16.4635C47.5962 17.0003 47.1995 17.2686 46.7758 17.2686ZM47.6953 24.1895V25.3198C46.8209 26.61 46.0051 27.5854 45.2479 28.246C44.4907 28.8963 43.8462 29.2215 43.3143 29.2215C42.5751 29.2215 42.0253 28.7776 41.6647 27.89C41.3041 27.0023 41.1238 26.032 41.1238 24.9792C41.1238 24.5766 41.1599 24.1947 41.232 23.8334C41.3041 23.4618 41.3897 23.1573 41.4889 22.9199C41.588 22.6825 41.7728 22.3109 42.0433 21.8051C43.3234 19.524 44.4952 18.3834 45.5589 18.3834C46.1088 18.3834 46.3837 18.626 46.3837 19.1111C46.3837 19.4414 46.2034 19.9575 45.8428 20.6594C45.4913 21.3613 45.1758 21.862 44.8963 22.1613C44.1121 23.0283 43.5983 23.6321 43.3549 23.9728C43.1205 24.3134 43.0033 24.7004 43.0033 25.134C43.0033 25.5056 43.125 25.8152 43.3684 26.0629C43.6118 26.3107 43.9273 26.4345 44.3149 26.4345C44.7386 26.4345 45.2029 26.2591 45.7077 25.9082C46.2215 25.5469 46.884 24.974 47.6953 24.1895ZM53.7665 24.2205C52.9733 25.2527 52.2611 26.1301 51.6301 26.8526C51.0082 27.5751 50.4988 28.117 50.1022 28.4783C49.7146 28.8292 49.4486 29.0047 49.3044 29.0047C49.07 29.0047 48.8041 28.7879 48.5066 28.3545C48.2182 27.9209 47.9702 27.3687 47.763 26.6978C47.5556 26.0268 47.4519 25.3456 47.4519 24.654C47.4519 23.6528 47.8756 22.6464 48.723 21.6348C49.5703 20.6129 50.5349 19.7666 51.6166 19.0956C52.6984 18.4247 53.5096 18.0892 54.0505 18.0892C54.4922 18.0892 54.9249 18.4092 55.3486 19.0492C56.0427 17.3873 56.7007 15.9113 57.3227 14.621C57.9537 13.3308 58.481 12.3709 58.905 11.7412C59.3285 11.1116 59.6302 10.7968 59.8108 10.7968C60.0092 10.7968 60.1892 10.9103 60.3514 11.1374C60.5227 11.3542 60.6087 11.6019 60.6087 11.8806C60.6087 12.4173 60.266 13.3411 59.5806 14.652C58.8958 15.9526 58.2196 17.2222 57.5526 18.4608C56.8856 19.6995 56.3131 20.9226 55.8353 22.1303C55.3576 23.3276 55.1187 24.4373 55.1187 25.4591C55.1187 26.3881 55.3801 26.8526 55.9029 26.8526C56.2185 26.8526 56.6151 26.6513 57.0928 26.2488C57.5706 25.8359 58.2514 25.1495 59.1346 24.1895V25.3198C57.1875 28.1996 55.6866 29.6395 54.6319 29.6395C54.2082 29.6395 53.9018 29.4537 53.7125 29.0821C53.5322 28.7105 53.442 28.1583 53.442 27.4254C53.442 26.4345 53.5502 25.3662 53.7665 24.2205ZM54.7672 20.4426C53.9649 20.7523 53.0228 21.2529 51.9411 21.9445C50.8594 22.6257 50.2058 23.0954 49.9805 23.3535C49.7822 23.5599 49.6064 23.947 49.4532 24.5147C49.2999 25.0824 49.2233 25.5107 49.2233 25.7998C49.2233 25.9752 49.2683 26.1198 49.3585 26.2332C49.4486 26.3468 49.5613 26.4036 49.6965 26.4036C49.8227 26.4036 49.967 26.3417 50.1292 26.2178C50.2915 26.0939 50.5484 25.8514 50.9 25.4901C51.2606 25.1288 51.4949 24.8966 51.6031 24.7933C51.7563 24.6385 52.0944 24.3082 52.6172 23.8024C53.1491 23.2863 53.5367 22.8838 53.7801 22.5948C54.0234 22.3057 54.2308 21.9857 54.4021 21.6348C54.5734 21.2735 54.695 20.8762 54.7672 20.4426ZM60.7166 21.4181C62.0867 19.9936 63.4166 18.9357 64.7054 18.2441C65.9948 17.5525 66.9906 17.2067 67.6939 17.2067C67.8831 17.2067 68.0591 17.2996 68.2212 17.4854C68.3833 17.6609 68.5096 17.8673 68.5996 18.1047C68.6989 18.3421 68.7485 18.5176 68.7485 18.6311C68.7485 18.817 68.6856 18.9563 68.5592 19.0492C68.4329 19.1317 68.2119 19.235 67.8969 19.3588C67.9598 19.524 68.0412 19.7356 68.1398 19.9936C68.2391 20.2517 68.3158 20.4633 68.37 20.6285C68.4242 20.7832 68.4508 20.9226 68.4508 21.0465C68.4508 21.2942 68.2304 21.7587 67.7885 22.44C67.3558 23.1109 67.0494 23.6063 66.8689 23.9263C66.6975 24.2463 66.6121 24.6385 66.6121 25.103C66.6121 25.8668 66.9185 26.2488 67.5317 26.2488C68.1623 26.2488 69.1494 25.5726 70.4931 24.2205V25.165C68.2119 28.0654 66.5804 29.5157 65.5979 29.5157C65.2466 29.5157 64.9939 29.3815 64.841 29.1131C64.6967 28.8551 64.6246 28.468 64.6246 27.9519C64.6246 27.1364 64.8814 25.9546 65.3954 24.4063C64.0789 26.0785 63.101 27.2706 62.4612 27.9829C61.8208 28.6848 61.2935 29.0357 60.8787 29.0357C60.6808 29.0357 60.4327 28.8395 60.135 28.4473C59.8379 28.0551 59.5719 27.5493 59.3377 26.93C59.1121 26.3004 58.9996 25.6501 58.9996 24.9792C58.9996 24.494 59.04 24.0915 59.1214 23.7715C59.2021 23.4412 59.3602 23.1057 59.5944 22.7651C59.8287 22.4245 60.2031 21.9754 60.7166 21.4181ZM67.1937 19.715C64.8496 20.9432 63.1777 21.9857 62.1768 22.8425C61.1856 23.6992 60.6894 24.5817 60.6894 25.4901C60.6894 25.8204 60.7391 26.0939 60.8383 26.3107C60.9375 26.5171 61.0725 26.6204 61.2439 26.6204C61.3431 26.6204 61.5191 26.5481 61.7712 26.4036C62.7179 25.7636 63.5833 24.9327 64.3673 23.9108C65.1519 22.8786 66.0935 21.48 67.1937 19.715ZM76.6183 24.7933L74.2114 27.1313C73.0662 28.277 72.3 28.8499 71.9123 28.8499C71.561 28.8499 71.1912 28.3906 70.8041 27.4719C70.4164 26.5429 70.2225 25.7326 70.2225 25.0411C70.2225 24.4527 70.2992 23.9573 70.4521 23.5547C70.6142 23.1418 70.8894 22.6103 71.2771 21.96C71.8269 21.0826 72.3542 20.3395 72.8591 19.7304C73.3639 19.1214 73.8104 18.6518 74.1975 18.3215C74.5852 17.9809 74.8558 17.8105 75.0093 17.8105C75.2527 17.8105 75.4869 17.9551 75.7119 18.2441C75.9467 18.5331 76.0639 18.8324 76.0639 19.1421C76.0639 19.3382 75.9375 19.653 75.6854 20.0865C75.4419 20.5201 75.0496 21.0723 74.5085 21.7432C73.9771 22.4038 73.2335 23.1986 72.2775 24.1276L72.0208 24.9792C71.9487 25.1443 71.9123 25.2888 71.9123 25.4127C71.9123 25.6914 72.0341 25.8307 72.2775 25.8307C72.5302 25.8307 73.1204 25.4643 74.0492 24.7314C74.9867 23.9985 76.0004 23.0128 77.0914 21.7742C77.5148 21.2891 77.8668 20.8607 78.146 20.4891C78.4258 20.1175 78.6779 19.7717 78.9035 19.4517C79.1285 19.1214 79.3137 18.8737 79.4579 18.7085C79.6108 18.5434 79.7464 18.4557 79.8635 18.4454C80.0885 18.4144 80.2644 18.5228 80.3908 18.7705C80.5166 19.0182 80.58 19.3847 80.58 19.8698C80.58 20.1485 80.4715 20.4994 80.2552 20.9226C80.0389 21.3355 79.6333 22.0477 79.0385 23.0592C78.4437 24.0605 77.8489 25.103 77.2535 26.1868C76.6679 27.2603 76.0685 28.4732 75.4552 29.8253C75.4823 29.7944 75.7569 29.4847 76.2802 28.8963C76.8121 28.308 77.3706 27.6938 77.9567 27.0539C78.5429 26.4139 79.0252 25.9029 79.4037 25.521C79.7821 25.1288 80.2552 24.6747 80.8235 24.1585V25.1959C79.6062 26.6926 78.5019 28.1119 77.5108 29.4537C76.5277 30.7956 75.7662 31.8691 75.2256 32.6742C74.6937 33.4793 74.3827 33.9489 74.2921 34.0832C74.0492 34.4444 73.8283 34.7798 73.6298 35.0895C73.4406 35.4095 73.2785 35.6521 73.1429 35.8173C73.0166 35.9927 72.9133 36.0804 72.8319 36.0804C72.6427 36.0804 72.4714 35.8637 72.3185 35.4301C72.1742 35.007 72.1021 34.6302 72.1021 34.2999C72.1021 34.0006 72.1512 33.7373 72.2504 33.5103C72.8994 31.8381 74.3556 28.9325 76.6183 24.7933Z" fill="#3F0886"/>
<path d="M40.6641 49.8086C40.6641 49.8809 40.7226 49.917 40.8399 49.917C40.921 49.917 41.286 49.8551 41.9351 49.7312C42.5931 49.6074 43.1881 49.5403 43.7199 49.53C43.125 49.7158 42.6112 49.9067 42.1785 50.1029C41.7548 50.2886 41.3131 50.5002 40.8534 50.7376C40.4026 50.9647 40.0781 51.1195 39.8798 51.2021C39.6814 51.2744 39.5102 51.3105 39.366 51.3105C38.9062 51.3105 38.6764 50.9698 38.6764 50.2886C38.6764 48.5339 39.064 47.3004 39.8392 46.5882C40.1548 46.2992 40.6596 45.9586 41.3537 45.5664C42.0568 45.1638 42.8455 44.787 43.7199 44.4361C44.6034 44.0748 45.5724 43.7651 46.6271 43.5071C47.6818 43.2491 48.7229 43.12 49.7506 43.12C50.8053 43.12 51.7743 43.2955 52.6577 43.6464C53.5412 43.9974 54.2803 44.4929 54.8753 45.1328C55.4702 45.7624 55.9255 46.5366 56.241 47.4552C56.5655 48.3739 56.7277 49.4061 56.7277 50.5518C56.7277 52.2963 56.286 53.9891 55.4026 55.6302C54.5282 57.2714 53.3564 58.7217 51.887 59.981C50.4266 61.2299 48.777 62.2208 46.9381 62.9537C45.0992 63.6865 43.2872 64.0529 41.5024 64.0529C41.1689 64.0529 40.9029 64.0117 40.7046 63.9291C40.5153 63.8465 40.3801 63.6814 40.299 63.4336C40.2178 63.1963 40.1773 62.8401 40.1773 62.3653C40.1773 61.777 40.2178 61.297 40.299 60.9254C40.3801 60.5539 40.5153 60.1254 40.7046 59.6403C42.0027 56.3476 44.2608 52.2033 47.479 47.2075C46.8299 47.2901 46.1178 47.4501 45.3426 47.6875C44.5673 47.9145 43.8326 48.1675 43.1385 48.4461C42.4444 48.7248 41.8585 48.9932 41.3807 49.2513C40.9029 49.5093 40.6641 49.6951 40.6641 49.8086ZM47.8711 47.1146C47.8711 47.1353 47.8891 47.2539 47.9252 47.4707C47.9612 47.6772 47.9793 47.8578 47.9793 48.0126C47.9793 48.2501 47.8711 48.5855 47.6548 49.019C47.4474 49.4423 47.0327 50.2009 46.4107 51.295C45.7888 52.3892 45.2569 53.3491 44.8152 54.1748C44.3735 55.0006 43.8506 56.0638 43.2467 57.3643C43.0574 57.7772 42.9266 58.0559 42.8545 58.2004C42.7824 58.3449 42.6652 58.5823 42.503 58.9126C42.3497 59.2429 42.237 59.5268 42.1649 59.7642C42.0928 60.0016 42.0568 60.1823 42.0568 60.3061C42.0568 60.5745 42.183 60.7654 42.4354 60.8789C42.6968 60.9822 43.0664 61.0338 43.5442 61.0338C44.7701 61.0338 46.0682 60.7809 47.4384 60.2751C48.8086 59.759 50.0931 59.0468 51.292 58.1385C52.5 57.2301 53.4645 56.2031 54.1857 55.0574C54.9069 53.9117 55.2674 52.7143 55.2674 51.4653C55.2674 50.0409 54.8122 48.9468 53.9017 48.1829C52.9913 47.4088 51.6662 47.0217 49.9264 47.0217C49.1962 47.0217 48.5111 47.0527 47.8711 47.1146ZM59.5131 59.0984V59.4855C59.5131 60.0945 59.644 60.5693 59.9054 60.9099C60.1667 61.2506 60.5094 61.4209 60.9329 61.4209C61.3748 61.4209 61.83 61.3022 62.2984 61.0648C62.7761 60.8273 63.2498 60.5126 63.7183 60.1203C64.1873 59.7281 64.7596 59.2017 65.4358 58.5411V59.4855C64.4169 60.8893 63.4615 61.9679 62.569 62.7214C61.6765 63.4646 60.7708 63.8362 59.8511 63.8362C59.0492 63.8362 58.4135 63.4801 57.945 62.7679C57.476 62.0557 57.2416 61.0802 57.2416 59.8416C57.2416 58.7578 57.4624 57.7772 57.904 56.8998C58.3459 56.0122 59.0671 55.078 60.0675 54.0974C60.7529 53.4265 61.4331 52.9207 62.1092 52.5801C62.7854 52.2395 63.3894 52.0692 63.9213 52.0692C64.3448 52.0692 64.6783 52.1827 64.9217 52.4098C65.1744 52.6266 65.3008 52.9569 65.3008 53.4007C65.3008 54.051 65.0884 54.7013 64.665 55.3516C64.2415 55.9915 63.5925 56.6315 62.7179 57.2714C61.8525 57.9011 60.784 58.5101 59.5131 59.0984ZM59.6486 58.092C60.4598 57.7308 61.1538 57.2817 61.7308 56.745C62.3077 56.2083 62.7311 55.6973 63.0017 55.2122C63.2815 54.7167 63.4211 54.3555 63.4211 54.1284C63.4211 53.891 63.3265 53.7723 63.1373 53.7723C62.9746 53.7723 62.7086 53.891 62.3394 54.1284C61.9788 54.3658 61.609 54.6755 61.2306 55.0574C60.8608 55.4393 60.5273 55.8883 60.2296 56.4044C59.9325 56.9205 59.7386 57.483 59.6486 58.092ZM65.3815 58.9745V58.603C67.7071 55.7954 69.3075 53.8291 70.1815 52.7039C70.38 51.4344 70.8577 50.7995 71.6152 50.7995C71.8044 50.7995 72.0069 50.8615 72.2238 50.9854L72.3046 51.2795C72.2688 51.4034 72.2504 51.5789 72.2504 51.806C72.2504 52.0021 72.3138 52.3685 72.4396 52.9052C72.5752 53.4317 72.679 53.8755 72.7511 54.2368C72.8233 54.598 72.859 55.0058 72.859 55.4599C72.859 56.1412 72.724 56.7967 72.4534 57.4263C72.1829 58.0456 71.7911 58.6442 71.2771 59.2223C70.7631 59.79 70.1008 60.3732 69.2896 60.9719C69.6138 61.0338 69.8706 61.0648 70.0604 61.0648C70.4296 61.0648 70.8265 60.9615 71.25 60.7551C71.6827 60.5383 72.12 60.2545 72.5613 59.9036C73.0125 59.5423 73.5352 59.0778 74.13 58.5101V59.5474C72.9761 60.8377 71.944 61.8183 71.0336 62.4892C70.1233 63.1498 69.3392 63.4801 68.6809 63.4801C67.8334 63.4801 67.0494 63.0673 66.3283 62.2415C65.9042 61.746 65.6383 61.2712 65.5304 60.817C65.4311 60.3629 65.3815 59.7487 65.3815 58.9745ZM70.425 56.6057L70.1815 54.3451C69.6231 55.0677 68.4283 56.456 66.5988 58.5101C67.1394 58.6442 67.5092 58.8249 67.7071 59.052C67.9056 59.2791 68.1854 59.7177 68.5454 60.368C69.1586 60.079 69.6277 59.6868 69.9519 59.1914C70.2854 58.6855 70.4521 57.9992 70.4521 57.1321C70.4521 57.0289 70.4475 56.936 70.4388 56.8534C70.4388 56.7708 70.4342 56.6882 70.425 56.6057ZM78.8354 50.5054H79.4169C79.8946 49.5248 80.3273 48.8332 80.715 48.4307C81.1027 48.0178 81.5446 47.8114 82.0402 47.8114C82.5358 47.8114 82.7838 47.9404 82.7838 48.1984C82.7838 48.3223 82.59 48.6577 82.2023 49.2048C81.8146 49.7519 81.5221 50.2112 81.3236 50.5828C81.63 50.6241 81.9006 50.6602 82.1348 50.6912C82.3783 50.7221 82.5675 50.7479 82.7031 50.7686C82.189 51.8627 81.5446 52.9826 80.7692 54.1284C80.5165 54.1077 80.3048 54.0923 80.1334 54.082C79.9627 54.0613 79.7867 54.0458 79.6061 54.0355C79.4354 54.0148 79.2231 53.9942 78.9709 53.9736C78.484 54.8716 78.0738 55.6767 77.7404 56.3889C77.4161 57.0908 77.1635 57.7359 76.9835 58.3243C76.8121 58.9126 76.7261 59.47 76.7261 59.9964C76.7261 60.7086 76.9742 61.0648 77.4698 61.0648C77.8125 61.0648 78.2585 60.8583 78.8088 60.4454C79.3673 60.0223 80.1109 59.3771 81.0398 58.5101V59.5474C78.6058 62.5718 76.8075 64.0839 75.6444 64.0839C75.2388 64.0839 74.91 63.9033 74.6573 63.542C74.4138 63.1808 74.2921 62.7163 74.2921 62.1486C74.2921 61.7667 74.3602 61.3125 74.4952 60.7861C74.6394 60.2597 74.8915 59.4648 75.2527 58.4017C75.1263 58.5256 75.0046 58.6494 74.8875 58.7733C74.779 58.8868 74.6758 58.9952 74.5765 59.0984C74.486 59.1914 74.3873 59.2945 74.2788 59.4081C74.1704 59.5113 74.0625 59.6197 73.9546 59.7332V58.6649C74.9008 57.7566 76.0454 56.1618 77.389 53.8807C77.2535 53.8704 77.1277 53.8652 77.01 53.8652C76.8929 53.8548 76.7533 53.8497 76.5911 53.8497C76.0592 53.8497 75.6623 53.891 75.401 53.9736C75.2931 54.0045 75.1892 54.0407 75.09 54.082C75 54.1129 74.9371 54.1284 74.9008 54.1284C74.865 54.1284 74.8465 54.0974 74.8465 54.0355C74.8465 53.6948 75.0317 53.1839 75.401 52.5027C75.6986 51.9247 75.9779 51.4963 76.2392 51.2176C76.5098 50.9389 76.8346 50.7531 77.2131 50.6602C77.6008 50.557 78.1413 50.5054 78.8354 50.5054ZM86.5563 51.6201C86.3313 51.6201 86.115 51.5221 85.9073 51.326C85.7088 51.1298 85.6102 50.8821 85.6102 50.5828C85.6102 50.1286 85.7994 49.6229 86.1779 49.0654C86.5563 48.5081 86.9486 48.2294 87.3542 48.2294C87.6248 48.2294 87.8498 48.3274 88.0304 48.5236C88.2104 48.7094 88.3009 48.9829 88.3009 49.3442C88.3009 49.788 88.1158 50.2783 87.7465 50.8151C87.3767 51.3518 86.9804 51.6201 86.5563 51.6201ZM87.4759 58.5411V59.6713C86.6013 60.9615 85.7856 61.937 85.0286 62.5976C84.2711 63.2479 83.6267 63.573 83.0948 63.573C82.3558 63.573 81.8059 63.1292 81.4454 62.2415C81.0848 61.3538 80.9042 60.3835 80.9042 59.3307C80.9042 58.9281 80.9406 58.5462 81.0127 58.1849C81.0848 57.8133 81.1702 57.5089 81.2694 57.2714C81.3686 57.034 81.5533 56.6624 81.8238 56.1567C83.104 53.8755 84.2758 52.7349 85.3396 52.7349C85.8894 52.7349 86.1646 52.9775 86.1646 53.4626C86.1646 53.7929 85.984 54.309 85.6235 55.0109C85.2721 55.7128 84.9565 56.2135 84.6767 56.5128C83.8927 57.3798 83.3786 57.9836 83.1358 58.3243C82.901 58.6649 82.7838 59.052 82.7838 59.4855C82.7838 59.8571 82.9056 60.1667 83.149 60.4145C83.3925 60.6622 83.7081 60.7861 84.0958 60.7861C84.5192 60.7861 84.9836 60.6106 85.4884 60.2597C86.0019 59.8984 86.6648 59.3255 87.4759 58.5411ZM96.4811 55.7386C94.8946 57.7617 94.1013 59.1707 94.1013 59.9655C94.1013 60.4093 94.2594 60.6312 94.575 60.6312C94.8363 60.6312 95.1744 60.4764 95.5892 60.1667C96.0127 59.8468 96.6704 59.2842 97.5629 58.4791V59.5474C96.2833 60.9925 95.3008 62.035 94.6154 62.675C93.93 63.315 93.3715 63.6349 92.9388 63.6349C92.1992 63.6349 91.83 63.0776 91.83 61.9628C91.83 61.6325 91.875 61.3073 91.965 60.9873C92.055 60.6673 92.1767 60.337 92.3302 59.9964C92.4923 59.6455 92.7358 59.1501 93.0606 58.5101C93.3848 57.8598 93.7592 57.127 94.1827 56.3115C93.6686 56.6108 93.0242 57.2044 92.2488 58.092C91.744 58.6494 91.3159 59.181 90.9646 59.6868C90.6127 60.1823 90.2342 60.7396 89.8286 61.3589C89.4323 61.9679 89.1392 62.3808 88.95 62.5976C88.7694 62.804 88.5848 62.9073 88.3956 62.9073C88.1071 62.9073 87.8411 62.5614 87.5977 61.8698C87.3542 61.1783 87.2325 60.3732 87.2325 59.4545C87.2325 58.8868 87.2867 58.443 87.3946 58.123C87.5123 57.803 87.7373 57.3489 88.0708 56.7605C88.6927 55.6664 89.2292 54.8664 89.6798 54.3607C90.131 53.8445 90.5636 53.5865 90.9779 53.5865C91.2663 53.5865 91.4965 53.6433 91.6679 53.7568C91.8479 53.8704 91.9379 54.0458 91.9379 54.2832C91.9379 54.3864 91.9108 54.4948 91.8571 54.6084C91.8029 54.7219 91.74 54.8251 91.6679 54.918C91.6044 55.0109 91.4648 55.1916 91.2485 55.4599C89.824 57.2663 89.1121 58.4378 89.1121 58.9745C89.1121 59.2739 89.1975 59.4236 89.3688 59.4236C89.4773 59.4236 89.6844 59.2274 89.9908 58.8352C90.3063 58.4326 90.7079 57.9114 91.1942 57.2714C91.6904 56.6211 92.2719 55.9451 92.9388 55.2432C93.615 54.5413 94.3811 53.8652 95.2373 53.2149C95.715 52.833 96.1119 52.642 96.4275 52.642C96.5717 52.642 96.7113 52.8691 96.8463 53.3233C96.9906 53.7774 97.0627 54.2368 97.0627 54.7013C97.0627 54.9283 96.8688 55.2742 96.4811 55.7386ZM99.064 55.7696C100.434 54.3451 101.764 53.2872 103.053 52.5956C104.342 51.904 105.338 51.5582 106.041 51.5582C106.231 51.5582 106.407 51.6511 106.569 51.837C106.731 52.0124 106.857 52.2189 106.947 52.4562C107.046 52.6936 107.096 52.8691 107.096 52.9826C107.096 53.1685 107.032 53.3078 106.907 53.4007C106.78 53.4833 106.559 53.5865 106.244 53.7104C106.307 53.8755 106.388 54.0871 106.487 54.3451C106.587 54.6032 106.663 54.8148 106.717 54.98C106.771 55.1348 106.798 55.2742 106.798 55.398C106.798 55.6457 106.577 56.1102 106.136 56.7915C105.703 57.4624 105.397 57.9579 105.216 58.2779C105.045 58.5978 104.96 58.9901 104.96 59.4545C104.96 60.2183 105.266 60.6003 105.879 60.6003C106.51 60.6003 107.497 59.9242 108.84 58.572V59.5165C106.559 62.417 104.928 63.8672 103.945 63.8672C103.593 63.8672 103.341 63.733 103.188 63.4646C103.044 63.2066 102.972 62.8195 102.972 62.3034C102.972 61.4879 103.229 60.3061 103.742 58.7578C102.426 60.43 101.448 61.6221 100.808 62.3344C100.168 63.0363 99.6409 63.3872 99.2261 63.3872C99.0277 63.3872 98.7802 63.1911 98.4825 62.7989C98.1854 62.4067 97.9194 61.9008 97.6846 61.2815C97.4596 60.6519 97.3465 60.0016 97.3465 59.3307C97.3465 58.8455 97.3875 58.443 97.4683 58.123C97.5496 57.7927 97.7071 57.4573 97.9419 57.1166C98.1761 56.776 98.55 56.327 99.064 55.7696ZM105.541 54.0665C103.197 55.2948 101.525 56.3373 100.524 57.194C99.5325 58.0508 99.0369 58.9333 99.0369 59.8416C99.0369 60.1719 99.0865 60.4454 99.1858 60.6622C99.285 60.8686 99.42 60.9719 99.5913 60.9719C99.6906 60.9719 99.8665 60.8996 100.119 60.7551C101.065 60.1151 101.931 59.2842 102.715 58.2623C103.499 57.2301 104.441 55.8315 105.541 54.0665ZM113.478 50.5054H114.059C114.537 49.5248 114.97 48.8332 115.357 48.4307C115.745 48.0178 116.187 47.8114 116.683 47.8114C117.178 47.8114 117.426 47.9404 117.426 48.1984C117.426 48.3223 117.232 48.6577 116.845 49.2048C116.457 49.7519 116.165 50.2112 115.966 50.5828C116.272 50.6241 116.543 50.6602 116.777 50.6912C117.021 50.7221 117.21 50.7479 117.345 50.7686C116.832 51.8627 116.187 52.9826 115.412 54.1284C115.159 54.1077 114.947 54.0923 114.776 54.082C114.605 54.0613 114.429 54.0458 114.249 54.0355C114.077 54.0148 113.866 53.9942 113.613 53.9736C113.127 54.8716 112.716 55.6767 112.383 56.3889C112.058 57.0908 111.806 57.7359 111.625 58.3243C111.455 58.9126 111.369 59.47 111.369 59.9964C111.369 60.7086 111.617 61.0648 112.112 61.0648C112.455 61.0648 112.901 60.8583 113.451 60.4454C114.01 60.0223 114.753 59.3771 115.682 58.5101V59.5474C113.248 62.5718 111.45 64.0839 110.287 64.0839C109.881 64.0839 109.552 63.9033 109.3 63.542C109.056 63.1808 108.935 62.7163 108.935 62.1486C108.935 61.7667 109.003 61.3125 109.138 60.7861C109.282 60.2597 109.534 59.4648 109.895 58.4017C109.769 58.5256 109.647 58.6494 109.53 58.7733C109.422 58.8868 109.318 58.9952 109.218 59.0984C109.128 59.1914 109.029 59.2945 108.921 59.4081C108.813 59.5113 108.705 59.6197 108.597 59.7332V58.6649C109.543 57.7566 110.688 56.1618 112.032 53.8807C111.896 53.8704 111.77 53.8652 111.652 53.8652C111.535 53.8548 111.396 53.8497 111.234 53.8497C110.702 53.8497 110.305 53.891 110.043 53.9736C109.936 54.0045 109.832 54.0407 109.732 54.082C109.642 54.1129 109.58 54.1284 109.543 54.1284C109.507 54.1284 109.489 54.0974 109.489 54.0355C109.489 53.6948 109.674 53.1839 110.043 52.5027C110.341 51.9247 110.62 51.4963 110.882 51.2176C111.152 50.9389 111.477 50.7531 111.856 50.6602C112.243 50.557 112.784 50.5054 113.478 50.5054ZM121.199 51.6201C120.974 51.6201 120.757 51.5221 120.55 51.326C120.351 51.1298 120.253 50.8821 120.253 50.5828C120.253 50.1286 120.442 49.6229 120.82 49.0654C121.199 48.5081 121.591 48.2294 121.997 48.2294C122.267 48.2294 122.492 48.3274 122.673 48.5236C122.853 48.7094 122.943 48.9829 122.943 49.3442C122.943 49.788 122.758 50.2783 122.389 50.8151C122.019 51.3518 121.622 51.6201 121.199 51.6201ZM122.118 58.5411V59.6713C121.244 60.9615 120.428 61.937 119.671 62.5976C118.914 63.2479 118.269 63.573 117.737 63.573C116.998 63.573 116.448 63.1292 116.088 62.2415C115.727 61.3538 115.547 60.3835 115.547 59.3307C115.547 58.9281 115.583 58.5462 115.655 58.1849C115.727 57.8133 115.813 57.5089 115.912 57.2714C116.011 57.034 116.196 56.6624 116.466 56.1567C117.747 53.8755 118.918 52.7349 119.982 52.7349C120.532 52.7349 120.807 52.9775 120.807 53.4626C120.807 53.7929 120.627 54.309 120.266 55.0109C119.915 55.7128 119.599 56.2135 119.319 56.5128C118.535 57.3798 118.021 57.9836 117.778 58.3243C117.543 58.6649 117.426 59.052 117.426 59.4855C117.426 59.8571 117.548 60.1667 117.792 60.4145C118.035 60.6622 118.351 60.7861 118.738 60.7861C119.162 60.7861 119.626 60.6106 120.131 60.2597C120.644 59.8984 121.307 59.3255 122.118 58.5411ZM130.705 58.5101V59.5474C130.109 60.1667 129.632 60.5796 129.271 60.7861C128.911 60.9925 128.392 61.0751 127.716 61.0338C126.545 62.6234 125.512 63.4182 124.62 63.4182C124.115 63.4182 123.655 63.2272 123.241 62.8453C122.826 62.4634 122.492 61.9421 122.24 61.2815C121.997 60.6209 121.875 59.8829 121.875 59.0675C121.875 58.4069 122.064 57.674 122.443 56.8689C122.83 56.0638 123.327 55.3154 123.93 54.6239C124.543 53.922 125.197 53.3594 125.891 52.9362C126.585 52.5027 127.229 52.2859 127.824 52.2859C128.248 52.2859 128.582 52.3633 128.825 52.5182C129.069 52.6627 129.19 52.8691 129.19 53.1375C129.19 53.3439 129.087 53.5814 128.879 53.8497C129.222 53.9323 129.456 54.0717 129.582 54.2677C129.708 54.4536 129.772 54.7993 129.772 55.3051C129.772 55.8006 129.668 56.4251 129.46 57.1786C129.262 57.932 128.987 58.6391 128.636 59.2997L128.879 59.5784H129.082C129.235 59.5784 129.384 59.5371 129.528 59.4545C129.681 59.3617 129.817 59.2688 129.934 59.1758C130.051 59.0726 130.308 58.8507 130.705 58.5101ZM127.919 54.438C127.171 54.9542 126.531 55.4238 125.999 55.847C125.467 56.2599 125.016 56.6831 124.647 57.1166C124.277 57.5398 124.029 57.9682 123.903 58.4017C123.678 59.5577 123.565 60.1823 123.565 60.2751C123.565 60.9564 123.98 61.297 124.809 61.297C125.197 61.297 125.846 60.9151 126.756 60.1513C126.603 59.6661 126.526 59.2017 126.526 58.7578C126.526 58.1075 126.644 57.4469 126.878 56.776C127.112 56.0948 127.46 55.3154 127.919 54.438ZM139.805 55.7386C138.218 57.7617 137.425 59.1707 137.425 59.9655C137.425 60.4093 137.583 60.6312 137.898 60.6312C138.16 60.6312 138.497 60.4764 138.912 60.1667C139.336 59.8468 139.994 59.2842 140.886 58.4791V59.5474C139.606 60.9925 138.624 62.035 137.939 62.675C137.253 63.315 136.695 63.6349 136.262 63.6349C135.523 63.6349 135.153 63.0776 135.153 61.9628C135.153 61.6325 135.198 61.3073 135.288 60.9873C135.378 60.6673 135.5 60.337 135.654 59.9964C135.816 59.6455 136.059 59.1501 136.383 58.5101C136.708 57.8598 137.082 57.127 137.506 56.3115C136.992 56.6108 136.348 57.2044 135.572 58.092C135.067 58.6494 134.639 59.181 134.288 59.6868C133.936 60.1823 133.558 60.7396 133.152 61.3589C132.755 61.9679 132.463 62.3808 132.273 62.5976C132.093 62.804 131.908 62.9073 131.718 62.9073C131.43 62.9073 131.165 62.5614 130.921 61.8698C130.678 61.1783 130.556 60.3732 130.556 59.4545C130.556 58.8868 130.61 58.443 130.718 58.123C130.835 57.803 131.061 57.3489 131.394 56.7605C132.016 55.6664 132.553 54.8664 133.003 54.3607C133.454 53.8445 133.887 53.5865 134.301 53.5865C134.59 53.5865 134.82 53.6433 134.991 53.7568C135.171 53.8704 135.261 54.0458 135.261 54.2832C135.261 54.3864 135.234 54.4948 135.18 54.6084C135.126 54.7219 135.063 54.8251 134.991 54.918C134.928 55.0109 134.788 55.1916 134.572 55.4599C133.147 57.2663 132.436 58.4378 132.436 58.9745C132.436 59.2739 132.521 59.4236 132.692 59.4236C132.801 59.4236 133.008 59.2274 133.314 58.8352C133.63 58.4326 134.031 57.9114 134.518 57.2714C135.013 56.6211 135.595 55.9451 136.262 55.2432C136.938 54.5413 137.705 53.8652 138.561 53.2149C139.038 52.833 139.435 52.642 139.75 52.642C139.895 52.642 140.035 52.8691 140.17 53.3233C140.314 53.7774 140.386 54.2368 140.386 54.7013C140.386 54.9283 140.192 55.2742 139.805 55.7386ZM140.751 58.9745V58.603C143.077 55.7954 144.677 53.8291 145.551 52.7039C145.75 51.4344 146.227 50.7995 146.984 50.7995C147.174 50.7995 147.377 50.8615 147.593 50.9854L147.674 51.2795C147.638 51.4034 147.62 51.5789 147.62 51.806C147.62 52.0021 147.683 52.3685 147.809 52.9052C147.945 53.4317 148.048 53.8755 148.12 54.2368C148.192 54.598 148.229 55.0058 148.229 55.4599C148.229 56.1412 148.093 56.7967 147.823 57.4263C147.553 58.0456 147.16 58.6442 146.647 59.2223C146.133 59.79 145.47 60.3732 144.659 60.9719C144.984 61.0338 145.24 61.0648 145.43 61.0648C145.799 61.0648 146.196 60.9615 146.62 60.7551C147.052 60.5383 147.489 60.2545 147.931 59.9036C148.382 59.5423 148.905 59.0778 149.5 58.5101V59.5474C148.346 60.8377 147.314 61.8183 146.403 62.4892C145.493 63.1498 144.708 63.4801 144.051 63.4801C143.203 63.4801 142.419 63.0673 141.697 62.2415C141.274 61.746 141.008 61.2712 140.9 60.817C140.801 60.3629 140.751 59.7487 140.751 58.9745ZM145.795 56.6057L145.551 54.3451C144.992 55.0677 143.798 56.456 141.968 58.5101C142.509 58.6442 142.878 58.8249 143.077 59.052C143.275 59.2791 143.555 59.7177 143.915 60.368C144.528 60.079 144.997 59.6868 145.322 59.1914C145.655 58.6855 145.822 57.9992 145.822 57.1321C145.822 57.0289 145.817 56.936 145.808 56.8534C145.808 56.7708 145.804 56.6882 145.795 56.6057Z" fill="white"/>
</g>
<defs>
<filter id="filter0_d" x="-21.0012" y="-15.4853" width="167.169" height="142.491" filterUnits="userSpaceOnUse" color-interpolation-filters="sRGB">
<feFlood flood-opacity="0" result="BackgroundImageFix"/>
<feColorMatrix in="SourceAlpha" type="matrix" values="0 0 0 0 0 0 0 0 0 0 0 0 0 0 0 0 0 0 127 0"/>
<feOffset dy="4"/>
<feGaussianBlur stdDeviation="25"/>
<feColorMatrix type="matrix" values="0 0 0 0 0 0 0 0 0 0 0 0 0 0 0 0 0 0 0.25 0"/>
<feBlend mode="normal" in2="BackgroundImageFix" result="effect1_dropShadow"/>
<feBlend mode="normal" in="SourceGraphic" in2="effect1_dropShadow" result="shape"/>
</filter>
<clipPath id="clip0">
<rect width="150" height="109" fill="white"/>
</clipPath>
</defs>
</svg>
